<svg width="1200" height="600" viewBox="0 0 1200 600" fill="none" xmlns="http://www.w3.org/2000/svg">
<g clip-path="url(#clip0)">
<rect width="1200" height="600" fill="white"/>
<g clip-path="url(#clip1)">
<path d="M298.487 140.071H295.363V54.5166C295.363 48.014 294.082 41.575 291.593 35.5674C289.104 29.5598 285.456 24.1011 280.856 19.503C276.257 14.905 270.797 11.2576 264.788 8.76916C258.779 6.28072 252.338 4.99995 245.834 4.99997H64.5293C58.025 4.99995 51.5844 6.28072 45.5753 8.76916C39.5661 11.2576 34.106 14.905 29.5068 19.503C24.9076 24.1011 21.2592 29.5598 18.7702 35.5674C16.2811 41.5751 15 48.014 15 54.5167V523.875C15 530.378 16.2811 536.817 18.7702 542.824C21.2593 548.832 24.9076 554.291 29.5068 558.889C34.106 563.487 39.5661 567.134 45.5753 569.623C51.5844 572.111 58.025 573.392 64.5293 573.392H245.834C252.338 573.392 258.779 572.111 264.788 569.623C270.797 567.134 276.257 563.487 280.856 558.889C285.456 554.291 289.104 548.832 291.593 542.824C294.082 536.817 295.363 530.378 295.363 523.875V200.97H298.487V140.071Z" fill="#E6E6E6"/>
<path d="M247.833 17.8825H224.166C225.255 20.5501 225.67 23.4444 225.376 26.3103C225.082 29.1763 224.087 31.9259 222.48 34.3171C220.873 36.7083 218.702 38.6675 216.159 40.0223C213.615 41.3771 210.778 42.0858 207.896 42.086H104.029C101.147 42.0858 98.3099 41.3771 95.7667 40.0223C93.2235 38.6675 91.0526 36.7083 89.4452 34.3171C87.8378 31.9259 86.8433 29.1763 86.5492 26.3103C86.2552 23.4444 86.6706 20.5501 87.759 17.8825H65.6546C60.7973 17.8825 55.9876 18.839 51.5 20.6973C47.0124 22.5557 42.9349 25.2795 39.5003 28.7132C36.0656 32.147 33.3411 36.2235 31.4823 40.7099C29.6235 45.1963 28.6668 50.0049 28.6667 54.8609V523.531C28.6667 528.387 29.6235 533.196 31.4823 537.682C33.3411 542.168 36.0656 546.245 39.5003 549.679C42.9349 553.113 47.0124 555.836 51.5 557.695C55.9876 559.553 60.7973 560.509 65.6546 560.509H247.833C252.69 560.509 257.5 559.553 261.987 557.695C266.475 555.836 270.552 553.113 273.987 549.679C277.422 546.245 280.146 542.168 282.005 537.682C283.864 533.196 284.82 528.387 284.82 523.531V54.8609C284.82 50.0049 283.864 45.1963 282.005 40.7099C280.146 36.2235 277.422 32.147 273.987 28.7132C270.552 25.2795 266.475 22.5557 261.987 20.6973C257.5 18.839 252.69 17.8825 247.833 17.8825V17.8825Z" fill="white"/>
<path d="M103.071 113.158H92.1933C91.8108 113.158 91.444 113.31 91.1735 113.58C90.9031 113.851 90.7512 114.217 90.7512 114.6V119.373C90.7512 119.755 90.9031 120.122 91.1735 120.392C91.444 120.663 91.8108 120.815 92.1933 120.815H93.9958V127.966H101.268V120.815H103.071C103.453 120.815 103.82 120.663 104.09 120.392C104.361 120.122 104.513 119.755 104.513 119.373V114.6C104.513 114.217 104.361 113.851 104.09 113.58C103.82 113.31 103.453 113.158 103.071 113.158V113.158Z" fill="#E6E6E6"/>
<path d="M113.965 156.842C107.304 147.097 103.898 135.494 104.237 123.695C104.243 123.423 104.154 123.157 103.986 122.942C103.819 122.728 103.582 122.578 103.316 122.518V120.456H91.8281V122.49H91.6698C91.3572 122.49 91.0576 122.615 90.8368 122.836C90.616 123.057 90.4922 123.357 90.4926 123.67C90.4926 123.698 90.4937 123.727 90.4959 123.755C91.4009 136.368 88.3448 147.679 81.3276 157.688C80.9238 158.263 80.7175 158.954 80.7397 159.656L81.9959 198.502C82.026 199.369 82.3898 200.19 83.0112 200.795C83.6326 201.399 84.4636 201.741 85.3307 201.748H111.315C112.192 201.741 113.031 201.391 113.655 200.774C114.278 200.157 114.636 199.322 114.651 198.445L115.135 160.728C115.15 159.344 114.742 157.988 113.965 156.842Z" fill="#E6E6E6"/>
<path d="M109.852 169.745H87.2351C86.9003 169.745 86.5695 169.818 86.2653 169.957C85.9611 170.097 85.6908 170.301 85.4728 170.555C85.2548 170.809 85.0943 171.107 85.0024 171.429C84.9104 171.751 84.8892 172.089 84.9401 172.42L88.3578 194.629H107.983L112.134 172.495C112.197 172.159 112.185 171.814 112.1 171.484C112.014 171.154 111.857 170.847 111.639 170.584C111.421 170.322 111.148 170.11 110.839 169.965C110.53 169.82 110.193 169.745 109.852 169.745V169.745Z" fill="white"/>
<path d="M224.156 229.526H213.278C212.896 229.526 212.529 229.678 212.259 229.949C211.988 230.219 211.836 230.586 211.836 230.968V235.741C211.836 236.124 211.988 236.49 212.259 236.761C212.529 237.031 212.896 237.183 213.278 237.183H215.081V244.335H222.353V237.183H224.156C224.538 237.183 224.905 237.031 225.175 236.761C225.446 236.49 225.598 236.124 225.598 235.741V230.968C225.598 230.586 225.446 230.219 225.175 229.949C224.905 229.678 224.538 229.526 224.156 229.526Z" fill="#E6E6E6"/>
<path d="M235.05 273.21C228.389 263.465 224.983 251.862 225.322 240.063C225.328 239.791 225.239 239.525 225.072 239.311C224.904 239.096 224.667 238.946 224.401 238.887V236.824H212.913V238.858H212.755C212.6 238.858 212.447 238.889 212.304 238.948C212.161 239.008 212.031 239.095 211.922 239.204C211.813 239.314 211.726 239.444 211.667 239.587C211.608 239.73 211.578 239.883 211.578 240.038C211.578 240.067 211.579 240.095 211.581 240.124C212.486 252.736 209.43 264.047 202.413 274.056C202.009 274.631 201.803 275.322 201.825 276.024L203.081 314.871C203.111 315.737 203.475 316.558 204.096 317.163C204.718 317.768 205.549 318.109 206.416 318.116H232.4C233.277 318.109 234.116 317.76 234.74 317.143C235.363 316.526 235.721 315.69 235.737 314.813L236.221 277.097C236.235 275.713 235.827 274.357 235.05 273.21V273.21Z" fill="#E6E6E6"/>
<path d="M230.937 286.114H208.32C207.985 286.114 207.655 286.186 207.35 286.326C207.046 286.466 206.776 286.67 206.558 286.924C206.34 287.178 206.179 287.476 206.088 287.798C205.996 288.119 205.974 288.457 206.025 288.788L209.443 310.998H229.068L233.219 288.863C233.282 288.528 233.27 288.183 233.185 287.853C233.099 287.522 232.942 287.215 232.724 286.953C232.506 286.69 232.233 286.479 231.924 286.334C231.615 286.189 231.278 286.114 230.937 286.114H230.937Z" fill="white"/>
<path d="M87.7785 394.037H82.6189C82.4375 394.037 82.2635 394.109 82.1352 394.238C82.0069 394.366 81.9348 394.54 81.9348 394.721V396.985C81.9348 397.167 82.0069 397.341 82.1352 397.469C82.2635 397.597 82.4375 397.669 82.6189 397.669H83.4739V401.062H86.9235V397.669H87.7785C87.9599 397.669 88.1339 397.597 88.2622 397.469C88.3905 397.341 88.4625 397.167 88.4625 396.985V394.721C88.4625 394.54 88.3905 394.366 88.2622 394.238C88.1339 394.109 87.9599 394.037 87.7785 394.037Z" fill="#E6E6E6"/>
<path d="M92.9463 414.759C89.7865 410.136 88.1711 404.632 88.3316 399.035C88.3345 398.906 88.2925 398.78 88.2129 398.678C88.1333 398.577 88.021 398.506 87.8949 398.477V397.499H82.4457V398.464H82.3706C82.2972 398.464 82.2245 398.478 82.1567 398.506C82.0889 398.535 82.0273 398.576 81.9754 398.628C81.9236 398.68 81.8825 398.742 81.8545 398.809C81.8264 398.877 81.8121 398.95 81.8122 399.023C81.8122 399.037 81.8127 399.051 81.8137 399.064C82.3167 404.775 80.7755 410.479 77.4648 415.16C77.2733 415.433 77.1754 415.76 77.1859 416.093L77.7817 434.52C77.7961 434.931 77.9686 435.32 78.2634 435.607C78.5581 435.894 78.9523 436.056 79.3636 436.059H91.6889C92.105 436.056 92.5033 435.89 92.7989 435.598C93.0946 435.305 93.2643 434.909 93.2718 434.493L93.5014 416.602C93.5082 415.945 93.3146 415.302 92.9463 414.759V414.759Z" fill="#E6E6E6"/>
<path d="M91.1725 421.532H79.4122V427.411H91.1725V421.532Z" fill="white"/>
<path d="M111.796 394.037H106.637C106.455 394.037 106.281 394.109 106.153 394.238C106.025 394.366 105.953 394.54 105.953 394.721V396.985C105.953 397.167 106.025 397.341 106.153 397.469C106.281 397.597 106.455 397.669 106.637 397.669H107.492V401.062H110.941V397.669H111.796C111.978 397.669 112.152 397.597 112.28 397.469C112.408 397.341 112.481 397.167 112.481 396.985V394.721C112.481 394.54 112.408 394.366 112.28 394.238C112.152 394.109 111.978 394.037 111.796 394.037Z" fill="#E6E6E6"/>
<path d="M116.964 414.759C113.804 410.136 112.189 404.632 112.35 399.035C112.352 398.906 112.311 398.78 112.231 398.678C112.151 398.577 112.039 398.506 111.913 398.477V397.499H106.464V398.464H106.389C106.315 398.464 106.242 398.478 106.175 398.506C106.107 398.535 106.045 398.576 105.993 398.628C105.942 398.68 105.9 398.742 105.872 398.809C105.844 398.877 105.83 398.95 105.83 399.023C105.83 399.037 105.831 399.051 105.832 399.064C106.335 404.775 104.794 410.479 101.483 415.16C101.291 415.433 101.193 415.76 101.204 416.093L101.8 434.52C101.814 434.931 101.987 435.32 102.281 435.607C102.576 435.894 102.97 436.056 103.382 436.059H115.707C116.123 436.056 116.521 435.89 116.817 435.598C117.113 435.305 117.282 434.909 117.29 434.493L117.519 416.602C117.526 415.945 117.333 415.302 116.964 414.759Z" fill="#E6E6E6"/>
<path d="M115.191 421.532H103.43V427.411H115.191V421.532Z" fill="white"/>
<path d="M135.815 394.037H130.655C130.474 394.037 130.3 394.109 130.171 394.238C130.043 394.366 129.971 394.54 129.971 394.721V396.985C129.971 397.167 130.043 397.341 130.171 397.469C130.3 397.597 130.474 397.669 130.655 397.669H131.51V401.062H134.96V397.669H135.815C135.996 397.669 136.17 397.597 136.298 397.469C136.427 397.341 136.499 397.167 136.499 396.985V394.721C136.499 394.54 136.427 394.366 136.298 394.238C136.17 394.109 135.996 394.037 135.815 394.037Z" fill="#E6E6E6"/>
<path d="M140.982 414.759C137.823 410.136 136.207 404.632 136.368 399.035C136.371 398.906 136.329 398.78 136.249 398.678C136.169 398.577 136.057 398.506 135.931 398.477V397.499H130.482V398.464H130.407C130.333 398.464 130.261 398.478 130.193 398.506C130.125 398.535 130.063 398.576 130.012 398.628C129.96 398.68 129.919 398.742 129.891 398.809C129.863 398.877 129.848 398.95 129.848 399.023C129.848 399.037 129.849 399.051 129.85 399.064C130.353 404.775 128.812 410.479 125.501 415.16C125.309 415.433 125.212 415.76 125.222 416.093L125.818 434.52C125.832 434.931 126.005 435.32 126.299 435.607C126.594 435.894 126.988 436.056 127.4 436.059H139.725C140.141 436.056 140.539 435.89 140.835 435.598C141.131 435.305 141.3 434.909 141.308 434.493L141.537 416.602C141.544 415.945 141.351 415.302 140.982 414.759Z" fill="#E6E6E6"/>
<path d="M139.209 421.532H127.448V427.411H139.209V421.532Z" fill="white"/>
<path d="M205.259 349.019H194.382C194.193 349.019 194.005 349.056 193.83 349.129C193.655 349.201 193.496 349.307 193.362 349.441C193.228 349.575 193.122 349.734 193.05 349.909C192.977 350.084 192.94 350.271 192.94 350.461V355.234C192.94 355.616 193.092 355.983 193.362 356.253C193.633 356.524 194 356.676 194.382 356.676H196.185V363.827H203.457V356.676H205.259C205.642 356.676 206.009 356.524 206.279 356.253C206.55 355.983 206.701 355.616 206.701 355.234V350.461C206.701 350.271 206.664 350.084 206.592 349.909C206.519 349.734 206.413 349.575 206.279 349.441C206.145 349.307 205.986 349.201 205.811 349.129C205.636 349.056 205.449 349.019 205.259 349.019V349.019Z" fill="#E6E6E6"/>
<path d="M216.154 392.703C209.492 382.958 206.087 371.354 206.425 359.556C206.431 359.284 206.343 359.018 206.175 358.803C206.007 358.589 205.771 358.439 205.505 358.379V356.317H194.017V358.35H193.859C193.704 358.351 193.551 358.381 193.408 358.441C193.265 358.5 193.135 358.587 193.026 358.697C192.916 358.806 192.83 358.936 192.771 359.079C192.711 359.222 192.681 359.376 192.681 359.53C192.681 359.559 192.683 359.588 192.685 359.616C193.59 372.229 190.534 383.54 183.516 393.549C183.113 394.124 182.906 394.814 182.928 395.517L184.185 434.363C184.215 435.229 184.579 436.051 185.2 436.655C185.821 437.26 186.652 437.602 187.52 437.609H213.503C214.38 437.601 215.22 437.252 215.843 436.635C216.467 436.018 216.824 435.182 216.84 434.306L217.324 396.589C217.339 395.205 216.93 393.849 216.154 392.703Z" fill="#E6E6E6"/>
<path d="M212.041 405.606H189.424C189.089 405.606 188.758 405.679 188.454 405.818C188.15 405.958 187.88 406.162 187.662 406.416C187.444 406.67 187.283 406.968 187.191 407.29C187.099 407.612 187.078 407.95 187.129 408.281L190.547 430.49H210.172L214.323 408.355C214.386 408.02 214.374 407.675 214.288 407.345C214.203 407.015 214.045 406.708 213.828 406.445C213.61 406.183 213.337 405.971 213.028 405.826C212.719 405.681 212.382 405.606 212.041 405.606V405.606Z" fill="white"/>
<path d="M211.198 206.749H146.358C150.892 182.246 149.849 152.658 146.358 120.839H211.198C207.8 152.659 206.785 182.246 211.198 206.749Z" fill="#E6E6E6"/>
<path d="M179.169 177.071C187.797 177.071 194.792 170.077 194.792 161.451C194.792 152.824 187.797 145.831 179.169 145.831C170.54 145.831 163.545 152.824 163.545 161.451C163.545 170.077 170.54 177.071 179.169 177.071Z" fill="white"/>
<path d="M151.827 320.774H86.9877C91.5208 296.272 90.4779 266.684 86.9877 234.864H151.827C148.429 266.684 147.414 296.272 151.827 320.774Z" fill="#E6E6E6"/>
<path d="M119.798 291.096C128.427 291.096 135.422 284.103 135.422 275.476C135.422 266.85 128.427 259.856 119.798 259.856C111.169 259.856 104.174 266.85 104.174 275.476C104.174 284.103 111.169 291.096 119.798 291.096Z" fill="white"/>
<path d="M247.914 212.216H183.075C187.608 187.713 186.565 158.125 183.075 126.306H247.914C244.516 158.126 243.501 187.713 247.914 212.216Z" fill="#E6E6E6"/>
<path d="M215.885 182.538C224.514 182.538 231.509 175.544 231.509 166.918C231.509 158.291 224.514 151.298 215.885 151.298C207.256 151.298 200.261 158.291 200.261 166.918C200.261 175.544 207.256 182.538 215.885 182.538Z" fill="white"/>
<path d="M247.914 208.311H183.075C187.608 183.808 186.565 154.22 183.075 122.401H247.914C244.516 154.221 243.501 183.808 247.914 208.311Z" fill="#E6E6E6"/>
<path d="M215.885 178.633C224.514 178.633 231.509 171.639 231.509 163.013C231.509 154.386 224.514 147.393 215.885 147.393C207.256 147.393 200.261 154.386 200.261 163.013C200.261 171.639 207.256 178.633 215.885 178.633Z" fill="white"/>
<path d="M247.914 212.216H183.075C187.608 187.713 186.565 158.125 183.075 126.306H247.914C244.516 158.126 243.501 187.713 247.914 212.216Z" fill="#E6E6E6"/>
<path d="M215.885 182.538C224.514 182.538 231.509 175.544 231.509 166.918C231.509 158.291 224.514 151.298 215.885 151.298C207.256 151.298 200.261 158.291 200.261 166.918C200.261 175.544 207.256 182.538 215.885 182.538Z" fill="white"/>
<path d="M262.756 202.063H50.2715V225.492H262.756V202.063Z" fill="#E6E6E6"/>
<path d="M262.756 318.431H50.2715V341.861H262.756V318.431Z" fill="#E6E6E6"/>
<path d="M262.756 434.799H50.2715V458.229H262.756V434.799Z" fill="#E6E6E6"/>
<path d="M632.383 529.853L579.447 492.422C597.3 475.034 613.538 450.276 629.068 422.283L682.004 459.715C660.851 483.732 642.933 507.302 632.383 529.853Z" fill="#6C63FF"/>
<path d="M632.397 490.001C641.026 490.001 648.021 483.007 648.021 474.381C648.021 465.754 641.026 458.761 632.397 458.761C623.769 458.761 616.774 465.754 616.774 474.381C616.774 483.007 623.769 490.001 632.397 490.001Z" fill="white"/>
<path d="M377.023 359.043H371.212C371.008 359.043 370.812 359.124 370.668 359.268C370.523 359.413 370.442 359.609 370.442 359.813V362.363C370.442 362.464 370.462 362.564 370.501 362.658C370.539 362.751 370.596 362.836 370.668 362.908C370.739 362.979 370.824 363.036 370.918 363.075C371.011 363.113 371.111 363.133 371.212 363.133H372.175V366.954H376.06V363.133H377.023C377.227 363.133 377.423 363.052 377.568 362.908C377.712 362.763 377.793 362.567 377.793 362.363V359.813C377.793 359.609 377.712 359.413 377.568 359.268C377.423 359.124 377.227 359.043 377.023 359.043V359.043Z" fill="#E6E6E6"/>
<path d="M382.843 382.379C379.285 377.173 377.465 370.975 377.646 364.672C377.649 364.526 377.602 364.384 377.512 364.27C377.423 364.155 377.296 364.075 377.154 364.043V362.941H371.017V364.028H370.933C370.85 364.028 370.768 364.044 370.692 364.076C370.615 364.108 370.546 364.154 370.488 364.213C370.429 364.271 370.383 364.341 370.351 364.417C370.32 364.494 370.304 364.576 370.304 364.658C370.304 364.674 370.304 364.689 370.306 364.704C370.872 371.136 369.136 377.56 365.408 382.831C365.192 383.139 365.082 383.507 365.094 383.883L365.765 404.635C365.781 405.098 365.975 405.537 366.307 405.86C366.639 406.183 367.083 406.365 367.546 406.369H381.427C381.896 406.365 382.344 406.178 382.677 405.849C383.01 405.519 383.201 405.073 383.21 404.604L383.468 384.456C383.476 383.716 383.258 382.992 382.843 382.379V382.379Z" fill="#6C63FF"/>
<path opacity="0.2" d="M375.812 359.874C375.812 360.314 375.637 360.737 375.325 361.049C375.013 361.36 374.59 361.535 374.15 361.535C373.709 361.535 373.286 361.36 372.974 361.049C372.663 360.737 372.488 360.314 372.488 359.874" fill="black"/>
<path d="M380.14 386.378H368.422V394.188H380.14V386.378Z" fill="white"/>
<path d="M560.908 440.113H550.031C549.648 440.113 549.282 440.265 549.011 440.535C548.741 440.806 548.589 441.172 548.589 441.555V446.328C548.589 446.71 548.741 447.077 549.011 447.347C549.282 447.618 549.648 447.77 550.031 447.77H551.833V454.922H559.106V447.77H560.908C561.291 447.77 561.657 447.618 561.928 447.347C562.198 447.077 562.35 446.71 562.35 446.328V441.555C562.35 441.172 562.198 440.806 561.928 440.535C561.657 440.265 561.291 440.113 560.908 440.113V440.113Z" fill="#E6E6E6"/>
<path d="M571.803 483.797C565.141 474.052 561.736 462.449 562.074 450.65C562.08 450.378 561.992 450.112 561.824 449.897C561.656 449.683 561.419 449.533 561.154 449.473V447.411H549.666V449.445H549.508C549.353 449.445 549.199 449.476 549.057 449.535C548.914 449.594 548.784 449.681 548.674 449.791C548.565 449.9 548.478 450.03 548.419 450.174C548.36 450.317 548.33 450.47 548.33 450.625C548.33 450.653 548.331 450.682 548.334 450.71C549.239 463.323 546.182 474.634 539.165 484.643C538.762 485.218 538.555 485.909 538.577 486.611L539.834 525.457C539.864 526.324 540.227 527.145 540.849 527.75C541.47 528.354 542.301 528.696 543.168 528.703H569.152C570.029 528.696 570.869 528.346 571.492 527.729C572.115 527.112 572.473 526.277 572.489 525.4L572.973 487.683C572.987 486.299 572.579 484.943 571.803 483.797V483.797Z" fill="#6C63FF"/>
<path opacity="0.2" d="M558.641 441.668C558.641 442.493 558.313 443.284 557.729 443.868C557.146 444.451 556.355 444.779 555.529 444.779C554.704 444.779 553.913 444.451 553.329 443.868C552.746 443.284 552.418 442.493 552.418 441.668" fill="black"/>
<path d="M567.69 496.7H545.073C544.738 496.7 544.407 496.773 544.103 496.913C543.799 497.052 543.528 497.256 543.31 497.51C543.092 497.764 542.932 498.062 542.84 498.384C542.748 498.706 542.727 499.044 542.778 499.375L546.195 521.584H565.821L569.972 499.45C570.035 499.114 570.023 498.769 569.937 498.439C569.852 498.109 569.694 497.802 569.476 497.539C569.259 497.277 568.985 497.066 568.677 496.921C568.368 496.776 568.031 496.7 567.69 496.7V496.7Z" fill="white"/>
<path d="M529.874 529.792H465.034C469.567 505.29 468.525 475.702 465.034 443.883H529.874C526.476 475.702 525.461 505.29 529.874 529.792Z" fill="#6C63FF"/>
<path d="M497.844 500.114C506.473 500.114 513.468 493.121 513.468 484.494C513.468 475.868 506.473 468.875 497.844 468.875C489.216 468.875 482.221 475.868 482.221 484.494C482.221 493.121 489.216 500.114 497.844 500.114Z" fill="white"/>
<path d="M264.666 259.423L279.221 258.1L288.485 235.611L271.944 226.35L264.666 259.423Z" fill="#FFB8B8"/>
<path d="M398.25 321.163C398.734 319.956 398.925 318.652 398.805 317.357C398.686 316.062 398.261 314.814 397.565 313.716C396.868 312.618 395.921 311.701 394.801 311.041C393.68 310.381 392.419 309.996 391.121 309.918L368.521 308.571L365.193 319.634L388.459 326.022C390.403 326.555 392.476 326.355 394.282 325.459C396.087 324.563 397.5 323.034 398.25 321.163V321.163Z" fill="#FFB8B8"/>
<path d="M373.983 326.207L373.734 305.449L323.535 297.441L284.861 253.098C282.849 250.791 280.069 249.291 277.035 248.877C274.002 248.462 270.921 249.161 268.363 250.843C266.814 251.862 265.508 253.208 264.537 254.786C263.566 256.365 262.954 258.138 262.744 259.979C262.533 261.821 262.73 263.686 263.32 265.443C263.91 267.199 264.879 268.805 266.158 270.147L298.063 309.401L373.983 326.207Z" fill="#6C63FF"/>
<path d="M253.418 559.727H266.651L299.473 411.37L333.475 457.2L353.324 556.42H365.895L363.249 449.924L318.92 336.153H275.252C263.319 357.744 253.957 380 264.666 402.96L253.418 559.727Z" fill="#2F2E41"/>
<path d="M345.212 568.738C345.066 569.206 345.021 569.7 345.081 570.187C345.14 570.674 345.303 571.142 345.558 571.561C345.812 571.98 346.154 572.34 346.558 572.617C346.963 572.894 347.422 573.082 347.905 573.168L380.286 578.912C381.565 579.146 382.886 578.904 383.999 578.232C385.113 577.559 385.942 576.503 386.329 575.262V575.262C386.707 574.076 386.654 572.795 386.181 571.644C385.707 570.492 384.843 569.545 383.74 568.968C376.62 565.313 370.493 559.987 365.883 553.447C362.324 556.76 358.346 556.448 354.122 554.006L349.642 554.566L345.212 568.738Z" fill="#2F2E41"/>
<path d="M247.291 568.738C247.145 569.206 247.1 569.7 247.159 570.187C247.219 570.674 247.381 571.142 247.636 571.561C247.891 571.98 248.232 572.34 248.637 572.617C249.042 572.894 249.501 573.082 249.984 573.168L282.364 578.912C283.644 579.146 284.965 578.904 286.078 578.232C287.191 577.559 288.02 576.503 288.408 575.262V575.262C288.786 574.076 288.733 572.795 288.259 571.644C287.786 570.492 286.922 569.545 285.819 568.968C278.699 565.313 272.571 559.987 267.961 553.447C264.403 556.76 260.425 556.448 256.201 554.006L251.721 554.566L247.291 568.738Z" fill="#2F2E41"/>
<path d="M288.815 243.879C299.047 243.879 307.341 235.586 307.341 225.358C307.341 215.129 299.047 206.837 288.815 206.837C278.584 206.837 270.29 215.129 270.29 225.358C270.29 235.586 278.584 243.879 288.815 243.879Z" fill="#FFB8B8"/>
<path d="M272.274 341.114L320.573 339.791L306.389 295.16C315.204 281.032 306.333 266.919 293.777 252.808L283.853 246.194L267.974 244.871C261.099 252.225 257.337 261.954 257.476 272.02C257.791 293.574 261.608 317.037 272.274 341.114Z" fill="#6C63FF"/>
<path d="M383.244 371.155C384.164 370.236 384.852 369.112 385.252 367.875C385.651 366.637 385.751 365.323 385.543 364.039C385.335 362.756 384.825 361.54 384.055 360.493C383.285 359.445 382.277 358.595 381.114 358.014L360.866 347.887L353.454 356.749L372.33 371.772C373.907 373.027 375.892 373.658 377.904 373.544C379.917 373.431 381.818 372.58 383.244 371.155V371.155Z" fill="#FFB8B8"/>
<path d="M358.948 366.249L366.888 347.067L323.886 319.961L305.78 263.984C304.838 261.072 302.872 258.599 300.246 257.025C297.62 255.451 294.513 254.881 291.499 255.422V255.422C289.674 255.749 287.944 256.473 286.43 257.543C284.916 258.613 283.656 260.001 282.738 261.612C281.82 263.222 281.267 265.014 281.118 266.861C280.969 268.708 281.228 270.566 281.876 272.302L295.762 320.939L358.948 366.249Z" fill="#6C63FF"/>
<path d="M258.38 218.081C258.38 225.288 263.062 236.449 268.966 241.233C272.939 244.452 278.19 244.316 280.214 239.91C282.291 235.39 289.449 224.765 302.048 218.081C318.843 209.172 296.092 193.929 280.214 196.253C268.283 198 258.38 206.026 258.38 218.081Z" fill="#2F2E41"/>
<path d="M269.628 208.16C276.936 208.16 282.861 202.237 282.861 194.93C282.861 187.624 276.936 181.701 269.628 181.701C262.32 181.701 256.395 187.624 256.395 194.93C256.395 202.237 262.32 208.16 269.628 208.16Z" fill="#2F2E41"/>
<path d="M284.845 190.3C284.844 186.965 283.582 183.753 281.312 181.309C279.042 178.865 275.932 177.369 272.605 177.121C272.934 177.096 273.263 177.071 273.598 177.071C277.107 177.071 280.473 178.465 282.955 180.945C285.436 183.426 286.83 186.791 286.83 190.3C286.83 193.809 285.436 197.174 282.955 199.654C280.473 202.135 277.107 203.529 273.598 203.529C273.263 203.529 272.934 203.504 272.605 203.479C275.932 203.231 279.042 201.735 281.312 199.291C283.582 196.847 284.844 193.635 284.845 190.3Z" fill="#2F2E41"/>
<path d="M289.146 231.972C290.79 231.972 292.123 230.195 292.123 228.003C292.123 225.812 290.79 224.035 289.146 224.035C287.502 224.035 286.169 225.812 286.169 228.003C286.169 230.195 287.502 231.972 289.146 231.972Z" fill="#FFB8B8"/>
<path d="M664.068 535.466H458.077L414.457 329.311H377.23V320.061H421.957L465.577 526.215H664.068V535.466Z" fill="#3F3D56"/>
<path d="M488.264 573.129C499.215 573.129 508.092 564.254 508.092 553.306C508.092 542.358 499.215 533.483 488.264 533.483C477.314 533.483 468.437 542.358 468.437 553.306C468.437 564.254 477.314 573.129 488.264 573.129Z" fill="#3F3D56"/>
<path d="M636.31 573.129C647.26 573.129 656.138 564.254 656.138 553.306C656.138 542.358 647.26 533.483 636.31 533.483C625.36 533.483 616.482 542.358 616.482 553.306C616.482 564.254 625.36 573.129 636.31 573.129Z" fill="#3F3D56"/>
<path d="M660.313 531.11H459.895L424.533 356.402H693.497C694.87 356.402 696.226 356.7 697.473 357.274C698.719 357.848 699.826 358.685 700.718 359.728C701.611 360.771 702.266 361.994 702.64 363.314C703.014 364.635 703.097 366.02 702.885 367.376L669.698 523.085C669.356 525.326 668.22 527.368 666.497 528.841C664.774 530.314 662.579 531.119 660.313 531.11V531.11ZM462.071 528.467H660.313C661.949 528.474 663.533 527.893 664.776 526.829C666.019 525.766 666.839 524.292 667.086 522.675L700.272 366.965C700.426 365.987 700.366 364.987 700.096 364.034C699.826 363.081 699.353 362.198 698.709 361.445C698.066 360.692 697.266 360.088 696.367 359.674C695.467 359.26 694.488 359.045 693.497 359.045H427.742L462.071 528.467Z" fill="#3F3D56"/>
<path d="M498.857 530.551L475.699 357.939L478.307 357.508L501.465 530.12L498.857 530.551Z" fill="#3F3D56"/>
<path d="M627.624 529.225L625.013 528.802L647.495 357.512L650.105 357.935L627.624 529.225Z" fill="#3F3D56"/>
<path d="M566.273 357.724H563.63V530.335H566.273V357.724Z" fill="#3F3D56"/>
<path d="M438.038 403.976L438.031 406.619L693.935 407.239L693.942 404.596L438.038 403.976Z" fill="#3F3D56"/>
<path d="M675.883 485.621L451.066 487.158L451.084 489.801L675.901 488.264L675.883 485.621Z" fill="#3F3D56"/>
<path d="M381.195 331.294C389.226 331.294 395.736 327.744 395.736 323.365C395.736 318.986 389.226 315.436 381.195 315.436C373.165 315.436 366.655 318.986 366.655 323.365C366.655 327.744 373.165 331.294 381.195 331.294Z" fill="#3F3D56"/>
</g>
<path d="M997.569 262.725L991.118 277.768L951.547 330.203C951.547 330.203 924.45 359.429 939.504 361.149C954.558 362.868 964.451 334.071 964.451 334.071L1010.9 288.083L1016.06 267.023L997.569 262.725Z" fill="#9F616A"/>
<path d="M1017.35 201.693L1011.12 203.437C1011.12 203.437 983.124 277.753 985.705 286.779C988.286 295.805 999.899 306.979 1005.06 306.12C1010.22 305.26 1017.35 201.693 1017.35 201.693Z" fill="#6C63FF"/>
<path d="M1104.47 583.606C1104.47 583.606 1101.73 597.316 1109.96 591.829C1118.19 586.343 1122.48 575.732 1122.48 575.732L1104.47 583.606Z" fill="#2F2E41"/>
<path d="M1007.03 274.329C1007.03 274.329 919.719 582.065 950.687 591.091C981.655 600.117 1027.25 590.232 1026.82 584.214C1026.39 578.197 1018.65 459.143 1018.65 459.143C1018.65 459.143 1063.81 617.309 1119.72 580.346C1175.64 543.383 1163.16 536.507 1158 533.928C1152.84 531.349 1074.99 408.856 1075.42 386.077C1075.85 363.298 1074.56 291.951 1065.1 281.206L1007.03 274.329Z" fill="#2F2E41"/>
<path d="M1062.49 164.916C1059.13 161.88 1057.03 157.693 1056.62 153.186C1056.2 148.678 1057.5 144.179 1060.25 140.581C1059.88 140.921 1059.53 141.275 1059.19 141.651C1055.98 145.203 1054.31 149.883 1054.55 154.662C1054.79 159.442 1056.93 163.929 1060.48 167.139C1064.03 170.348 1068.71 172.017 1073.5 171.778C1078.28 171.539 1082.77 169.412 1085.99 165.865C1086.33 165.488 1086.64 165.099 1086.95 164.704C1083.64 167.797 1079.29 169.536 1074.76 169.575C1070.23 169.614 1065.85 167.952 1062.49 164.916V164.916Z" fill="#2F2E41"/>
<path d="M1060.8 169.243C1081.34 169.243 1098 152.598 1098 132.066C1098 111.533 1081.34 94.8879 1060.8 94.8879C1040.25 94.8879 1023.59 111.533 1023.59 132.066C1023.59 152.598 1040.25 169.243 1060.8 169.243Z" fill="#2F2E41"/>
<path d="M960.579 589.802C960.579 589.802 950.687 599.687 960.579 599.687C970.472 599.687 979.935 593.24 979.935 593.24L960.579 589.802Z" fill="#2F2E41"/>
<path d="M1037.14 155.275C1037.14 155.275 1043.59 181.922 1038.86 187.08C1034.13 192.237 1023.81 196.106 1023.81 196.106L1025.53 244.243C1025.53 244.243 1045.31 237.366 1046.17 236.507C1047.03 235.647 1064.67 207.71 1064.67 207.71L1081.87 191.378C1081.87 191.378 1055.63 178.914 1063.38 157.424C1071.12 135.934 1037.14 155.275 1037.14 155.275Z" fill="#9F616A"/>
<path d="M1075.13 146.391C1077.11 134.207 1068.83 122.727 1056.64 120.75C1044.44 118.772 1032.96 127.047 1030.98 139.231C1029 151.414 1037.28 162.894 1049.47 164.872C1061.66 166.849 1073.15 158.574 1075.13 146.391Z" fill="#9F616A"/>
<path d="M1065.1 281.206C1065.1 281.206 1074.99 248.541 1079.72 244.243C1084.45 239.945 1096.07 199.544 1096.07 199.544C1096.07 199.544 1088.75 189.659 1082.73 189.659C1076.71 189.659 1071.12 191.808 1064.24 198.255C1061 201.291 1055.09 204.631 1049.74 207.316C1047.84 208.285 1045.77 208.866 1043.64 209.026C1041.52 209.186 1039.38 208.921 1037.36 208.247C1035.34 207.573 1033.47 206.503 1031.87 205.099C1030.27 203.696 1028.96 201.988 1028.02 200.074C1026.95 197.803 1026.6 195.628 1027.68 193.957C1027.68 193.957 1011.76 198.255 1010.9 204.272C1010.04 210.289 1010.9 222.753 1009.61 225.332C1008.32 227.911 1004.45 231.779 1006.17 248.111C1007.89 264.444 1004.38 285.096 1004.38 285.096C1020.44 300.416 1042.7 290.96 1065.1 281.206Z" fill="#6C63FF"/>
<path d="M1052.84 135.719C1063.29 135.719 1071.76 129.946 1071.76 122.825C1071.76 115.704 1063.29 109.931 1052.84 109.931C1042.39 109.931 1033.91 115.704 1033.91 122.825C1033.91 129.946 1042.39 135.719 1052.84 135.719Z" fill="#2F2E41"/>
<path d="M1085.1 121.965C1095.07 121.965 1103.16 113.883 1103.16 103.914C1103.16 93.9441 1095.07 85.8621 1085.1 85.8621C1075.12 85.8621 1067.03 93.9441 1067.03 103.914C1067.03 113.883 1075.12 121.965 1085.1 121.965Z" fill="#2F2E41"/>
<path d="M1098 116.808C1093.47 116.807 1089.11 115.106 1085.77 112.041C1082.44 108.976 1080.38 104.771 1080 100.26C1079.96 100.757 1079.94 101.258 1079.94 101.765C1079.94 106.551 1081.84 111.14 1085.23 114.525C1088.61 117.909 1093.2 119.812 1097.99 119.814C1102.78 119.816 1107.38 117.917 1110.77 114.536C1114.15 111.154 1116.06 106.566 1116.07 101.78V101.765C1116.07 101.258 1116.04 100.757 1116 100.26C1115.62 104.771 1113.56 108.976 1110.23 112.041C1106.9 115.106 1102.53 116.807 1098 116.808V116.808Z" fill="#2F2E41"/>
<path d="M1055.63 392.889H1049.62L1037.61 497.561L1077.22 496.232L1055.63 392.889Z" fill="#6C63FF"/>
<path opacity="0.2" d="M1055.63 392.889H1049.62L1037.61 497.561L1077.22 496.232L1055.63 392.889Z" fill="black"/>
<path d="M1053.63 391.551L1046.29 496.897L1136.19 503.565L1143.53 400.886L1053.63 391.551Z" fill="#6C63FF"/>
<path opacity="0.2" d="M1083.9 402.223C1084.63 402.223 1085.23 401.625 1085.23 400.886C1085.23 400.147 1084.63 399.548 1083.9 399.548C1083.16 399.548 1082.56 400.147 1082.56 400.886C1082.56 401.625 1083.16 402.223 1083.9 402.223Z" fill="black"/>
<path opacity="0.2" d="M1111.92 405.553C1112.66 405.553 1113.26 404.954 1113.26 404.216C1113.26 403.477 1112.66 402.878 1111.92 402.878C1111.18 402.878 1110.58 403.477 1110.58 404.216C1110.58 404.954 1111.18 405.553 1111.92 405.553Z" fill="black"/>
<path d="M1112.25 404.225H1111.59C1111.59 403.939 1112.06 375.816 1095.9 373.224C1092.71 372.716 1090.11 373.436 1088.16 375.364C1081.49 381.977 1084.25 400.655 1084.27 400.84L1083.62 400.941C1083.5 400.157 1080.78 381.737 1087.7 374.893C1089.8 372.799 1092.61 372.015 1096.01 372.56C1112.73 375.235 1112.26 403.939 1112.25 404.225Z" fill="#3F3D56"/>
<path d="M1097.36 258.856L1095.21 282.925L1099.51 355.131C1099.51 355.131 1109.4 391.664 1094.35 390.805C1079.29 389.945 1084.88 352.553 1084.88 352.553L1078 268.742L1097.36 258.856Z" fill="#9F616A"/>
<path d="M1084.88 193.527L1096.07 199.544C1096.07 199.544 1111.12 301.788 1102.52 311.673C1093.92 321.559 1076.28 325.427 1075.42 321.559C1074.56 317.691 1071.55 239.086 1071.55 239.086L1084.88 193.527Z" fill="#6C63FF"/>
<g filter="url(#filter0_d)">
<mask id="path-91-outside-1" maskUnits="userSpaceOnUse" x="367" y="24" width="495" height="167" fill="black">
<rect fill="white" x="367" y="24" width="495" height="167"/>
<path d="M400.151 158.155C392.426 158.155 386.17 156.175 381.383 152.215C376.704 148.365 373.277 143.36 371.101 137.2C369.034 131.04 368 124.605 368 117.895C368 109.205 369.306 100.46 371.917 91.66C374.528 82.86 378.064 74.5 382.525 66.58C387.095 58.55 392.263 51.455 398.03 45.295C403.796 39.025 409.835 34.13 416.145 30.61C422.565 26.98 428.875 25.165 435.077 25.165C439.538 25.165 443.128 26.265 445.848 28.465C448.677 30.555 450.092 34.185 450.092 39.355C450.092 42.545 449.548 46.175 448.46 50.245C447.372 54.205 445.903 58.055 444.053 61.795C442.204 65.425 440.136 68.45 437.851 70.87C435.675 73.29 433.445 74.5 431.16 74.5C430.29 74.5 429.365 74.225 428.386 73.675C427.515 73.125 426.754 72.135 426.101 70.705C427.733 68.835 429.528 66.525 431.487 63.775C433.554 60.915 435.512 57.945 437.362 54.865C439.212 51.675 440.68 48.595 441.768 45.625C442.965 42.545 443.564 39.85 443.564 37.54C443.564 35.34 442.911 33.58 441.605 32.26C440.408 30.83 438.395 30.115 435.567 30.115C430.888 30.115 425.992 32.04 420.878 35.89C415.873 39.74 410.977 44.91 406.19 51.4C401.511 57.78 397.268 64.93 393.46 72.85C389.652 80.77 386.605 88.855 384.32 97.105C382.144 105.355 381.056 113.22 381.056 120.7C381.056 126.09 381.818 131.26 383.341 136.21C384.864 141.05 387.313 144.955 390.685 147.925C394.167 151.005 398.628 152.545 404.068 152.545C409.835 152.545 415.547 150.895 421.205 147.595C426.971 144.295 432.248 139.95 437.035 134.56C441.823 129.17 445.631 123.34 448.46 117.07L450.745 118.72C447.154 125.87 442.802 132.47 437.688 138.52C432.575 144.46 426.862 149.19 420.552 152.71C414.241 156.34 407.441 158.155 400.151 158.155Z"/>
<path d="M452.889 151.555C449.516 151.555 446.687 150.4 444.403 148.09C442.009 145.89 440.812 142.48 440.812 137.86C440.812 133.9 441.683 129.665 443.423 125.155C445.164 120.535 447.558 116.025 450.604 111.625C453.651 107.115 457.078 103.045 460.886 99.415C464.803 95.675 468.883 92.705 473.127 90.505C477.479 88.305 481.776 87.205 486.02 87.205C490.263 87.205 493.799 88.36 496.628 90.67C499.457 92.87 500.871 95.84 500.871 99.58C500.871 102.33 500.11 104.2 498.586 105.19C497.172 106.18 495.268 106.675 492.874 106.675C493.418 104.695 493.69 102.77 493.69 100.9C493.69 98.37 493.092 96.225 491.895 94.465C490.698 92.595 488.631 91.66 485.693 91.66C482.647 91.66 479.546 92.76 476.391 94.96C473.235 97.05 470.189 99.91 467.251 103.54C464.314 107.06 461.702 110.91 459.417 115.09C457.133 119.27 455.337 123.395 454.032 127.465C452.726 131.535 452.073 135.165 452.073 138.355C452.073 142.645 453.542 144.79 456.48 144.79C458.982 144.79 461.702 143.635 464.64 141.325C467.578 138.905 470.57 135.88 473.616 132.25C476.771 128.51 479.764 124.66 482.592 120.7C485.421 116.74 487.924 113.11 490.1 109.81C490.535 109.15 490.807 108.82 490.916 108.82C491.895 108.93 493.201 109.37 494.833 110.14C496.465 110.8 497.281 111.735 497.281 112.945C497.281 113.935 496.791 115.31 495.812 117.07C494.833 118.72 493.745 120.645 492.548 122.845C491.351 125.045 490.263 127.3 489.284 129.61C488.305 131.81 487.815 133.9 487.815 135.88C487.815 137.53 488.25 139.18 489.121 140.83C489.991 142.37 491.405 143.14 493.364 143.14C496.302 143.14 500.164 140.995 504.951 136.705C509.739 132.305 514.58 125.76 519.477 117.07L521.109 118.72C518.824 124.66 515.886 129.885 512.296 134.395C508.705 138.905 504.843 142.425 500.708 144.955C496.682 147.485 492.711 148.75 488.794 148.75C484.768 148.75 481.776 147.54 479.818 145.12C477.968 142.7 477.043 140.06 477.043 137.2C477.043 135.77 477.207 134.175 477.533 132.415C472.855 138.795 468.557 143.58 464.64 146.77C460.832 149.96 456.915 151.555 452.889 151.555Z"/>
<path d="M530.011 151.39C520.327 151.39 515.486 145.945 515.486 135.055C515.486 130.215 516.356 124.275 518.097 117.235C519.947 110.085 522.232 102.77 524.952 95.29C523.864 95.07 522.83 94.905 521.851 94.795C520.871 94.575 519.947 94.3 519.076 93.97V91C519.947 91.11 520.98 91.22 522.177 91.33C523.374 91.44 524.734 91.55 526.257 91.66C528.542 85.72 530.99 80 533.601 74.5C536.213 68.89 538.77 63.94 541.272 59.65C543.883 55.25 546.331 51.785 548.616 49.255C551.01 46.615 553.023 45.295 554.655 45.295C555.525 45.295 556.287 45.625 556.94 46.285C557.701 46.835 558.082 47.715 558.082 48.925C558.082 50.795 556.94 53.875 554.655 58.165C552.37 62.345 549.541 67.35 546.168 73.18C542.795 79.01 539.531 85.335 536.376 92.155H542.414C546.005 92.155 549.759 92.1 553.676 91.99C557.701 91.88 561.727 91.605 565.753 91.165V94.135C553.893 95.455 544.319 96.115 537.029 96.115H534.581C532.078 101.945 529.957 107.94 528.216 114.1C526.475 120.26 525.604 126.255 525.604 132.085C525.604 136.815 526.312 140.225 527.726 142.315C529.141 144.295 531.48 145.285 534.744 145.285C540.402 145.285 545.951 142.755 551.391 137.695C556.831 132.635 561.618 125.76 565.753 117.07L567.874 118.72C565.263 124.88 561.945 130.435 557.919 135.385C554.002 140.335 549.65 144.24 544.863 147.1C540.075 149.96 535.125 151.39 530.011 151.39Z"/>
<path d="M570.511 151.555C567.138 151.555 564.309 150.4 562.024 148.09C559.631 145.89 558.434 142.48 558.434 137.86C558.434 133.9 559.304 129.665 561.045 125.155C562.786 120.535 565.18 116.025 568.226 111.625C571.273 107.115 574.7 103.045 578.508 99.415C582.425 95.675 586.505 92.705 590.748 90.505C595.101 88.305 599.398 87.205 603.642 87.205C607.885 87.205 611.421 88.36 614.25 90.67C617.079 92.87 618.493 95.84 618.493 99.58C618.493 102.33 617.732 104.2 616.208 105.19C614.794 106.18 612.89 106.675 610.496 106.675C611.04 104.695 611.312 102.77 611.312 100.9C611.312 98.37 610.714 96.225 609.517 94.465C608.32 92.595 606.253 91.66 603.315 91.66C600.269 91.66 597.168 92.76 594.013 94.96C590.857 97.05 587.811 99.91 584.873 103.54C581.935 107.06 579.324 110.91 577.039 115.09C574.754 119.27 572.959 123.395 571.654 127.465C570.348 131.535 569.695 135.165 569.695 138.355C569.695 142.645 571.164 144.79 574.102 144.79C576.604 144.79 579.324 143.635 582.262 141.325C585.2 138.905 588.192 135.88 591.238 132.25C594.393 128.51 597.385 124.66 600.214 120.7C603.043 116.74 605.546 113.11 607.722 109.81C608.157 109.15 608.429 108.82 608.538 108.82C609.517 108.93 610.823 109.37 612.455 110.14C614.087 110.8 614.903 111.735 614.903 112.945C614.903 113.935 614.413 115.31 613.434 117.07C612.455 118.72 611.367 120.645 610.17 122.845C608.973 125.045 607.885 127.3 606.906 129.61C605.926 131.81 605.437 133.9 605.437 135.88C605.437 137.53 605.872 139.18 606.743 140.83C607.613 142.37 609.027 143.14 610.986 143.14C613.923 143.14 617.786 140.995 622.573 136.705C627.361 132.305 632.202 125.76 637.099 117.07L638.731 118.72C636.446 124.66 633.508 129.885 629.918 134.395C626.327 138.905 622.465 142.425 618.33 144.955C614.304 147.485 610.333 148.75 606.416 148.75C602.39 148.75 599.398 147.54 597.44 145.12C595.59 142.7 594.665 140.06 594.665 137.2C594.665 135.77 594.829 134.175 595.155 132.415C590.476 138.795 586.179 143.58 582.262 146.77C578.454 149.96 574.537 151.555 570.511 151.555ZM610.659 76.15C609.898 75.71 609.299 74.995 608.864 74.005C608.538 73.015 608.375 72.3 608.375 71.86C608.375 70.87 608.919 69.33 610.007 67.24C611.203 65.04 612.672 62.785 614.413 60.475C616.154 58.055 618.004 56.02 619.962 54.37C621.921 52.72 623.716 51.895 625.348 51.895C626.218 51.895 626.98 52.28 627.633 53.05C628.394 53.71 628.83 55.03 628.938 57.01C625.021 60.42 621.594 63.665 618.656 66.745C615.719 69.825 613.053 72.96 610.659 76.15Z"/>
<path d="M647.306 148.75C642.628 148.75 639.255 147.1 637.188 143.8C635.229 140.61 634.25 136.595 634.25 131.755C634.25 126.475 635.229 120.205 637.188 112.945C639.146 105.685 641.703 98.04 644.858 90.01C648.122 81.98 651.659 74.17 655.467 66.58C659.275 58.88 663.083 51.895 666.891 45.625C670.699 39.355 674.181 34.35 677.336 30.61C680.6 26.87 683.157 25 685.007 25C686.203 25 687.183 25.715 687.944 27.145C688.706 28.465 689.304 30.115 689.74 32.095C690.175 33.965 690.392 35.67 690.392 37.21C690.392 40.18 689.631 44.085 688.108 48.925C686.693 53.655 684.626 58.99 681.906 64.93C679.295 70.76 676.139 76.7 672.44 82.75C668.849 88.69 664.878 94.41 660.526 99.91C656.283 105.41 651.767 110.14 646.98 114.1C646.327 117.07 645.783 119.985 645.348 122.845C645.022 125.595 644.858 128.235 644.858 130.765C644.858 139.235 647.252 143.47 652.039 143.47C654.977 143.47 657.86 142.15 660.689 139.51C663.627 136.87 666.347 133.57 668.849 129.61C671.461 125.54 673.691 121.36 675.541 117.07L677.989 118.39C673.637 127.74 668.904 135.165 663.79 140.665C658.676 146.055 653.182 148.75 647.306 148.75ZM648.449 108.49C652.257 104.64 655.956 100.24 659.547 95.29C663.137 90.23 666.456 85.005 669.502 79.615C672.658 74.225 675.432 69 677.826 63.94C680.219 58.88 682.069 54.37 683.375 50.41C684.68 46.34 685.333 43.205 685.333 41.005C685.333 39.905 685.17 39.19 684.843 38.86C684.626 38.53 684.408 38.365 684.191 38.365C683.32 38.365 681.797 39.795 679.621 42.655C677.554 45.405 675.106 49.145 672.277 53.875C669.448 58.605 666.565 63.995 663.627 70.045C660.689 76.095 657.86 82.42 655.14 89.02C652.529 95.62 650.299 102.11 648.449 108.49Z"/>
<path d="M683.591 149.08C678.913 149.08 675.594 147.595 673.636 144.625C671.677 141.765 670.698 138.245 670.698 134.065C670.698 130.655 671.242 127.135 672.33 123.505C673.418 119.875 674.833 116.465 676.574 113.275C678.423 110.085 680.436 107.5 682.612 105.52C684.897 103.54 687.182 102.55 689.467 102.55C690.446 102.55 691.588 102.825 692.894 103.375C691.915 104.255 690.718 105.905 689.304 108.325C687.998 110.635 686.747 113.33 685.55 116.41C684.353 119.38 683.319 122.35 682.449 125.32C681.687 128.29 681.307 130.82 681.307 132.91C681.307 136.21 681.85 138.63 682.939 140.17C684.027 141.6 685.441 142.315 687.182 142.315C689.467 142.315 692.187 141.105 695.342 138.685C698.497 136.155 701.598 132.965 704.645 129.115C701.598 126.585 699.205 123.285 697.464 119.215C695.832 115.035 695.016 110.8 695.016 106.51C695.016 102.88 695.614 99.47 696.811 96.28C698.117 93.09 699.966 90.56 702.36 88.69C704.754 86.71 707.637 85.72 711.01 85.72C715.471 85.72 718.463 86.93 719.986 89.35C721.509 91.77 722.271 94.795 722.271 98.425C722.271 102.715 721.237 107.5 719.17 112.78C717.103 117.95 714.491 122.955 711.336 127.795C713.295 128.895 715.362 129.445 717.538 129.445C720.04 129.445 723.087 128.62 726.677 126.97C730.268 125.21 733.042 122.075 735.001 117.565L736.959 119.215C734.783 124.385 731.682 128.07 727.657 130.27C723.74 132.36 719.986 133.405 716.395 133.405C713.458 133.405 710.846 132.855 708.562 131.755C704.862 136.705 700.782 140.83 696.321 144.13C691.969 147.43 687.726 149.08 683.591 149.08ZM707.582 124.825C710.302 120.755 712.533 116.52 714.274 112.12C716.123 107.61 717.048 103.375 717.048 99.415C717.048 96.225 716.559 93.915 715.579 92.485C714.709 90.945 713.567 90.175 712.152 90.175C709.976 90.175 707.746 91.77 705.461 94.96C703.176 98.15 702.033 102.165 702.033 107.005C702.033 110.195 702.469 113.44 703.339 116.74C704.318 119.93 705.733 122.625 707.582 124.825Z"/>
<path d="M738.14 190C735.746 190 733.57 189.23 731.612 187.69C729.653 186.26 728.674 183.84 728.674 180.43C728.674 177.13 729.708 174.05 731.775 171.19C733.733 168.44 736.29 165.855 739.446 163.435C742.601 161.125 746.028 158.98 749.727 157C753.536 155.02 757.126 153.15 760.499 151.39C762.022 147.54 763.437 143.415 764.742 139.015C766.157 134.505 767.517 129.555 768.822 124.165C764.688 130.215 760.336 135.275 755.766 139.345C751.305 143.305 746.79 145.285 742.22 145.285C738.303 145.285 735.257 143.8 733.081 140.83C731.013 137.86 729.98 134.01 729.98 129.28C729.98 123.56 731.34 118.115 734.06 112.945C736.889 107.775 740.534 103.21 744.994 99.25C749.455 95.29 754.188 92.21 759.193 90.01C764.198 87.7 768.877 86.545 773.229 86.545C776.384 86.545 778.615 87.095 779.92 88.195C781.335 89.185 782.042 90.395 782.042 91.825C782.042 92.815 781.77 93.585 781.226 94.135C780.682 94.685 780.301 95.015 780.083 95.125C778.995 93.475 776.819 92.65 773.555 92.65C769.312 92.65 765.177 93.915 761.152 96.445C757.235 98.975 753.753 102.22 750.707 106.18C747.66 110.14 745.212 114.265 743.362 118.555C741.622 122.735 740.751 126.585 740.751 130.105C740.751 132.745 741.241 134.78 742.22 136.21C743.308 137.53 744.722 138.19 746.463 138.19C749.619 138.19 753.372 136.1 757.724 131.92C762.185 127.63 766.483 122.46 770.618 116.41C770.944 114.87 771.216 113.495 771.434 112.285C771.76 111.075 772.141 109.535 772.576 107.665C772.902 106.125 773.664 104.365 774.861 102.385C776.167 100.295 778.179 99.25 780.899 99.25C781.879 99.25 783.021 99.415 784.327 99.745C784.327 101.505 783.783 104.75 782.695 109.48C781.715 114.1 780.247 119.545 778.288 125.815C776.438 131.975 774.262 138.355 771.76 144.955C777.091 142.425 782.259 138.74 787.264 133.9C792.269 128.95 795.969 123.34 798.362 117.07L800.484 118.72C798.852 123.67 796.241 128.18 792.65 132.25C789.06 136.32 785.197 139.84 781.063 142.81C777.037 145.78 773.338 148.09 769.965 149.74C766.918 157.11 763.709 163.82 760.336 169.87C756.963 176.03 753.427 180.925 749.727 184.555C746.137 188.185 742.274 190 738.14 190ZM737.65 184.72C739.826 184.72 742.764 182.52 746.463 178.12C750.271 173.83 754.352 166.405 758.704 155.845C754.352 158.045 750.271 160.3 746.463 162.61C742.764 165.03 739.718 167.56 737.324 170.2C734.93 172.84 733.733 175.755 733.733 178.945C733.733 180.705 734.114 182.08 734.876 183.07C735.637 184.17 736.562 184.72 737.65 184.72Z"/>
<path d="M806.632 149.08C801.954 149.08 798.635 147.595 796.677 144.625C794.718 141.765 793.739 138.245 793.739 134.065C793.739 130.655 794.283 127.135 795.371 123.505C796.459 119.875 797.874 116.465 799.614 113.275C801.464 110.085 803.477 107.5 805.653 105.52C807.938 103.54 810.223 102.55 812.508 102.55C813.487 102.55 814.629 102.825 815.935 103.375C814.956 104.255 813.759 105.905 812.344 108.325C811.039 110.635 809.787 113.33 808.591 116.41C807.394 119.38 806.36 122.35 805.49 125.32C804.728 128.29 804.347 130.82 804.347 132.91C804.347 136.21 804.891 138.63 805.979 140.17C807.067 141.6 808.482 142.315 810.223 142.315C812.508 142.315 815.228 141.105 818.383 138.685C821.538 136.155 824.639 132.965 827.686 129.115C824.639 126.585 822.245 123.285 820.505 119.215C818.872 115.035 818.056 110.8 818.056 106.51C818.056 102.88 818.655 99.47 819.852 96.28C821.157 93.09 823.007 90.56 825.401 88.69C827.794 86.71 830.678 85.72 834.05 85.72C838.511 85.72 841.504 86.93 843.027 89.35C844.55 91.77 845.312 94.795 845.312 98.425C845.312 102.715 844.278 107.5 842.211 112.78C840.143 117.95 837.532 122.955 834.377 127.795C836.335 128.895 838.403 129.445 840.579 129.445C843.081 129.445 846.128 128.62 849.718 126.97C853.309 125.21 856.083 122.075 858.042 117.565L860 119.215C857.824 124.385 854.723 128.07 850.697 130.27C846.78 132.36 843.027 133.405 839.436 133.405C836.499 133.405 833.887 132.855 831.602 131.755C827.903 136.705 823.823 140.83 819.362 144.13C815.01 147.43 810.767 149.08 806.632 149.08ZM830.623 124.825C833.343 120.755 835.574 116.52 837.315 112.12C839.164 107.61 840.089 103.375 840.089 99.415C840.089 96.225 839.599 93.915 838.62 92.485C837.75 90.945 836.607 90.175 835.193 90.175C833.017 90.175 830.786 91.77 828.502 94.96C826.217 98.15 825.074 102.165 825.074 107.005C825.074 110.195 825.509 113.44 826.38 116.74C827.359 119.93 828.774 122.625 830.623 124.825Z"/>
</mask>
<path d="M400.151 158.155C392.426 158.155 386.17 156.175 381.383 152.215C376.704 148.365 373.277 143.36 371.101 137.2C369.034 131.04 368 124.605 368 117.895C368 109.205 369.306 100.46 371.917 91.66C374.528 82.86 378.064 74.5 382.525 66.58C387.095 58.55 392.263 51.455 398.03 45.295C403.796 39.025 409.835 34.13 416.145 30.61C422.565 26.98 428.875 25.165 435.077 25.165C439.538 25.165 443.128 26.265 445.848 28.465C448.677 30.555 450.092 34.185 450.092 39.355C450.092 42.545 449.548 46.175 448.46 50.245C447.372 54.205 445.903 58.055 444.053 61.795C442.204 65.425 440.136 68.45 437.851 70.87C435.675 73.29 433.445 74.5 431.16 74.5C430.29 74.5 429.365 74.225 428.386 73.675C427.515 73.125 426.754 72.135 426.101 70.705C427.733 68.835 429.528 66.525 431.487 63.775C433.554 60.915 435.512 57.945 437.362 54.865C439.212 51.675 440.68 48.595 441.768 45.625C442.965 42.545 443.564 39.85 443.564 37.54C443.564 35.34 442.911 33.58 441.605 32.26C440.408 30.83 438.395 30.115 435.567 30.115C430.888 30.115 425.992 32.04 420.878 35.89C415.873 39.74 410.977 44.91 406.19 51.4C401.511 57.78 397.268 64.93 393.46 72.85C389.652 80.77 386.605 88.855 384.32 97.105C382.144 105.355 381.056 113.22 381.056 120.7C381.056 126.09 381.818 131.26 383.341 136.21C384.864 141.05 387.313 144.955 390.685 147.925C394.167 151.005 398.628 152.545 404.068 152.545C409.835 152.545 415.547 150.895 421.205 147.595C426.971 144.295 432.248 139.95 437.035 134.56C441.823 129.17 445.631 123.34 448.46 117.07L450.745 118.72C447.154 125.87 442.802 132.47 437.688 138.52C432.575 144.46 426.862 149.19 420.552 152.71C414.241 156.34 407.441 158.155 400.151 158.155Z" fill="#FFB8B8"/>
<path d="M452.889 151.555C449.516 151.555 446.687 150.4 444.403 148.09C442.009 145.89 440.812 142.48 440.812 137.86C440.812 133.9 441.683 129.665 443.423 125.155C445.164 120.535 447.558 116.025 450.604 111.625C453.651 107.115 457.078 103.045 460.886 99.415C464.803 95.675 468.883 92.705 473.127 90.505C477.479 88.305 481.776 87.205 486.02 87.205C490.263 87.205 493.799 88.36 496.628 90.67C499.457 92.87 500.871 95.84 500.871 99.58C500.871 102.33 500.11 104.2 498.586 105.19C497.172 106.18 495.268 106.675 492.874 106.675C493.418 104.695 493.69 102.77 493.69 100.9C493.69 98.37 493.092 96.225 491.895 94.465C490.698 92.595 488.631 91.66 485.693 91.66C482.647 91.66 479.546 92.76 476.391 94.96C473.235 97.05 470.189 99.91 467.251 103.54C464.314 107.06 461.702 110.91 459.417 115.09C457.133 119.27 455.337 123.395 454.032 127.465C452.726 131.535 452.073 135.165 452.073 138.355C452.073 142.645 453.542 144.79 456.48 144.79C458.982 144.79 461.702 143.635 464.64 141.325C467.578 138.905 470.57 135.88 473.616 132.25C476.771 128.51 479.764 124.66 482.592 120.7C485.421 116.74 487.924 113.11 490.1 109.81C490.535 109.15 490.807 108.82 490.916 108.82C491.895 108.93 493.201 109.37 494.833 110.14C496.465 110.8 497.281 111.735 497.281 112.945C497.281 113.935 496.791 115.31 495.812 117.07C494.833 118.72 493.745 120.645 492.548 122.845C491.351 125.045 490.263 127.3 489.284 129.61C488.305 131.81 487.815 133.9 487.815 135.88C487.815 137.53 488.25 139.18 489.121 140.83C489.991 142.37 491.405 143.14 493.364 143.14C496.302 143.14 500.164 140.995 504.951 136.705C509.739 132.305 514.58 125.76 519.477 117.07L521.109 118.72C518.824 124.66 515.886 129.885 512.296 134.395C508.705 138.905 504.843 142.425 500.708 144.955C496.682 147.485 492.711 148.75 488.794 148.75C484.768 148.75 481.776 147.54 479.818 145.12C477.968 142.7 477.043 140.06 477.043 137.2C477.043 135.77 477.207 134.175 477.533 132.415C472.855 138.795 468.557 143.58 464.64 146.77C460.832 149.96 456.915 151.555 452.889 151.555Z" fill="#FFB8B8"/>
<path d="M530.011 151.39C520.327 151.39 515.486 145.945 515.486 135.055C515.486 130.215 516.356 124.275 518.097 117.235C519.947 110.085 522.232 102.77 524.952 95.29C523.864 95.07 522.83 94.905 521.851 94.795C520.871 94.575 519.947 94.3 519.076 93.97V91C519.947 91.11 520.98 91.22 522.177 91.33C523.374 91.44 524.734 91.55 526.257 91.66C528.542 85.72 530.99 80 533.601 74.5C536.213 68.89 538.77 63.94 541.272 59.65C543.883 55.25 546.331 51.785 548.616 49.255C551.01 46.615 553.023 45.295 554.655 45.295C555.525 45.295 556.287 45.625 556.94 46.285C557.701 46.835 558.082 47.715 558.082 48.925C558.082 50.795 556.94 53.875 554.655 58.165C552.37 62.345 549.541 67.35 546.168 73.18C542.795 79.01 539.531 85.335 536.376 92.155H542.414C546.005 92.155 549.759 92.1 553.676 91.99C557.701 91.88 561.727 91.605 565.753 91.165V94.135C553.893 95.455 544.319 96.115 537.029 96.115H534.581C532.078 101.945 529.957 107.94 528.216 114.1C526.475 120.26 525.604 126.255 525.604 132.085C525.604 136.815 526.312 140.225 527.726 142.315C529.141 144.295 531.48 145.285 534.744 145.285C540.402 145.285 545.951 142.755 551.391 137.695C556.831 132.635 561.618 125.76 565.753 117.07L567.874 118.72C565.263 124.88 561.945 130.435 557.919 135.385C554.002 140.335 549.65 144.24 544.863 147.1C540.075 149.96 535.125 151.39 530.011 151.39Z" fill="#FFB8B8"/>
<path d="M570.511 151.555C567.138 151.555 564.309 150.4 562.024 148.09C559.631 145.89 558.434 142.48 558.434 137.86C558.434 133.9 559.304 129.665 561.045 125.155C562.786 120.535 565.18 116.025 568.226 111.625C571.273 107.115 574.7 103.045 578.508 99.415C582.425 95.675 586.505 92.705 590.748 90.505C595.101 88.305 599.398 87.205 603.642 87.205C607.885 87.205 611.421 88.36 614.25 90.67C617.079 92.87 618.493 95.84 618.493 99.58C618.493 102.33 617.732 104.2 616.208 105.19C614.794 106.18 612.89 106.675 610.496 106.675C611.04 104.695 611.312 102.77 611.312 100.9C611.312 98.37 610.714 96.225 609.517 94.465C608.32 92.595 606.253 91.66 603.315 91.66C600.269 91.66 597.168 92.76 594.013 94.96C590.857 97.05 587.811 99.91 584.873 103.54C581.935 107.06 579.324 110.91 577.039 115.09C574.754 119.27 572.959 123.395 571.654 127.465C570.348 131.535 569.695 135.165 569.695 138.355C569.695 142.645 571.164 144.79 574.102 144.79C576.604 144.79 579.324 143.635 582.262 141.325C585.2 138.905 588.192 135.88 591.238 132.25C594.393 128.51 597.385 124.66 600.214 120.7C603.043 116.74 605.546 113.11 607.722 109.81C608.157 109.15 608.429 108.82 608.538 108.82C609.517 108.93 610.823 109.37 612.455 110.14C614.087 110.8 614.903 111.735 614.903 112.945C614.903 113.935 614.413 115.31 613.434 117.07C612.455 118.72 611.367 120.645 610.17 122.845C608.973 125.045 607.885 127.3 606.906 129.61C605.926 131.81 605.437 133.9 605.437 135.88C605.437 137.53 605.872 139.18 606.743 140.83C607.613 142.37 609.027 143.14 610.986 143.14C613.923 143.14 617.786 140.995 622.573 136.705C627.361 132.305 632.202 125.76 637.099 117.07L638.731 118.72C636.446 124.66 633.508 129.885 629.918 134.395C626.327 138.905 622.465 142.425 618.33 144.955C614.304 147.485 610.333 148.75 606.416 148.75C602.39 148.75 599.398 147.54 597.44 145.12C595.59 142.7 594.665 140.06 594.665 137.2C594.665 135.77 594.829 134.175 595.155 132.415C590.476 138.795 586.179 143.58 582.262 146.77C578.454 149.96 574.537 151.555 570.511 151.555ZM610.659 76.15C609.898 75.71 609.299 74.995 608.864 74.005C608.538 73.015 608.375 72.3 608.375 71.86C608.375 70.87 608.919 69.33 610.007 67.24C611.203 65.04 612.672 62.785 614.413 60.475C616.154 58.055 618.004 56.02 619.962 54.37C621.921 52.72 623.716 51.895 625.348 51.895C626.218 51.895 626.98 52.28 627.633 53.05C628.394 53.71 628.83 55.03 628.938 57.01C625.021 60.42 621.594 63.665 618.656 66.745C615.719 69.825 613.053 72.96 610.659 76.15Z" fill="#FFB8B8"/>
<path d="M647.306 148.75C642.628 148.75 639.255 147.1 637.188 143.8C635.229 140.61 634.25 136.595 634.25 131.755C634.25 126.475 635.229 120.205 637.188 112.945C639.146 105.685 641.703 98.04 644.858 90.01C648.122 81.98 651.659 74.17 655.467 66.58C659.275 58.88 663.083 51.895 666.891 45.625C670.699 39.355 674.181 34.35 677.336 30.61C680.6 26.87 683.157 25 685.007 25C686.203 25 687.183 25.715 687.944 27.145C688.706 28.465 689.304 30.115 689.74 32.095C690.175 33.965 690.392 35.67 690.392 37.21C690.392 40.18 689.631 44.085 688.108 48.925C686.693 53.655 684.626 58.99 681.906 64.93C679.295 70.76 676.139 76.7 672.44 82.75C668.849 88.69 664.878 94.41 660.526 99.91C656.283 105.41 651.767 110.14 646.98 114.1C646.327 117.07 645.783 119.985 645.348 122.845C645.022 125.595 644.858 128.235 644.858 130.765C644.858 139.235 647.252 143.47 652.039 143.47C654.977 143.47 657.86 142.15 660.689 139.51C663.627 136.87 666.347 133.57 668.849 129.61C671.461 125.54 673.691 121.36 675.541 117.07L677.989 118.39C673.637 127.74 668.904 135.165 663.79 140.665C658.676 146.055 653.182 148.75 647.306 148.75ZM648.449 108.49C652.257 104.64 655.956 100.24 659.547 95.29C663.137 90.23 666.456 85.005 669.502 79.615C672.658 74.225 675.432 69 677.826 63.94C680.219 58.88 682.069 54.37 683.375 50.41C684.68 46.34 685.333 43.205 685.333 41.005C685.333 39.905 685.17 39.19 684.843 38.86C684.626 38.53 684.408 38.365 684.191 38.365C683.32 38.365 681.797 39.795 679.621 42.655C677.554 45.405 675.106 49.145 672.277 53.875C669.448 58.605 666.565 63.995 663.627 70.045C660.689 76.095 657.86 82.42 655.14 89.02C652.529 95.62 650.299 102.11 648.449 108.49Z" fill="#FFB8B8"/>
<path d="M683.591 149.08C678.913 149.08 675.594 147.595 673.636 144.625C671.677 141.765 670.698 138.245 670.698 134.065C670.698 130.655 671.242 127.135 672.33 123.505C673.418 119.875 674.833 116.465 676.574 113.275C678.423 110.085 680.436 107.5 682.612 105.52C684.897 103.54 687.182 102.55 689.467 102.55C690.446 102.55 691.588 102.825 692.894 103.375C691.915 104.255 690.718 105.905 689.304 108.325C687.998 110.635 686.747 113.33 685.55 116.41C684.353 119.38 683.319 122.35 682.449 125.32C681.687 128.29 681.307 130.82 681.307 132.91C681.307 136.21 681.85 138.63 682.939 140.17C684.027 141.6 685.441 142.315 687.182 142.315C689.467 142.315 692.187 141.105 695.342 138.685C698.497 136.155 701.598 132.965 704.645 129.115C701.598 126.585 699.205 123.285 697.464 119.215C695.832 115.035 695.016 110.8 695.016 106.51C695.016 102.88 695.614 99.47 696.811 96.28C698.117 93.09 699.966 90.56 702.36 88.69C704.754 86.71 707.637 85.72 711.01 85.72C715.471 85.72 718.463 86.93 719.986 89.35C721.509 91.77 722.271 94.795 722.271 98.425C722.271 102.715 721.237 107.5 719.17 112.78C717.103 117.95 714.491 122.955 711.336 127.795C713.295 128.895 715.362 129.445 717.538 129.445C720.04 129.445 723.087 128.62 726.677 126.97C730.268 125.21 733.042 122.075 735.001 117.565L736.959 119.215C734.783 124.385 731.682 128.07 727.657 130.27C723.74 132.36 719.986 133.405 716.395 133.405C713.458 133.405 710.846 132.855 708.562 131.755C704.862 136.705 700.782 140.83 696.321 144.13C691.969 147.43 687.726 149.08 683.591 149.08ZM707.582 124.825C710.302 120.755 712.533 116.52 714.274 112.12C716.123 107.61 717.048 103.375 717.048 99.415C717.048 96.225 716.559 93.915 715.579 92.485C714.709 90.945 713.567 90.175 712.152 90.175C709.976 90.175 707.746 91.77 705.461 94.96C703.176 98.15 702.033 102.165 702.033 107.005C702.033 110.195 702.469 113.44 703.339 116.74C704.318 119.93 705.733 122.625 707.582 124.825Z" fill="#FFB8B8"/>
<path d="M738.14 190C735.746 190 733.57 189.23 731.612 187.69C729.653 186.26 728.674 183.84 728.674 180.43C728.674 177.13 729.708 174.05 731.775 171.19C733.733 168.44 736.29 165.855 739.446 163.435C742.601 161.125 746.028 158.98 749.727 157C753.536 155.02 757.126 153.15 760.499 151.39C762.022 147.54 763.437 143.415 764.742 139.015C766.157 134.505 767.517 129.555 768.822 124.165C764.688 130.215 760.336 135.275 755.766 139.345C751.305 143.305 746.79 145.285 742.22 145.285C738.303 145.285 735.257 143.8 733.081 140.83C731.013 137.86 729.98 134.01 729.98 129.28C729.98 123.56 731.34 118.115 734.06 112.945C736.889 107.775 740.534 103.21 744.994 99.25C749.455 95.29 754.188 92.21 759.193 90.01C764.198 87.7 768.877 86.545 773.229 86.545C776.384 86.545 778.615 87.095 779.92 88.195C781.335 89.185 782.042 90.395 782.042 91.825C782.042 92.815 781.77 93.585 781.226 94.135C780.682 94.685 780.301 95.015 780.083 95.125C778.995 93.475 776.819 92.65 773.555 92.65C769.312 92.65 765.177 93.915 761.152 96.445C757.235 98.975 753.753 102.22 750.707 106.18C747.66 110.14 745.212 114.265 743.362 118.555C741.622 122.735 740.751 126.585 740.751 130.105C740.751 132.745 741.241 134.78 742.22 136.21C743.308 137.53 744.722 138.19 746.463 138.19C749.619 138.19 753.372 136.1 757.724 131.92C762.185 127.63 766.483 122.46 770.618 116.41C770.944 114.87 771.216 113.495 771.434 112.285C771.76 111.075 772.141 109.535 772.576 107.665C772.902 106.125 773.664 104.365 774.861 102.385C776.167 100.295 778.179 99.25 780.899 99.25C781.879 99.25 783.021 99.415 784.327 99.745C784.327 101.505 783.783 104.75 782.695 109.48C781.715 114.1 780.247 119.545 778.288 125.815C776.438 131.975 774.262 138.355 771.76 144.955C777.091 142.425 782.259 138.74 787.264 133.9C792.269 128.95 795.969 123.34 798.362 117.07L800.484 118.72C798.852 123.67 796.241 128.18 792.65 132.25C789.06 136.32 785.197 139.84 781.063 142.81C777.037 145.78 773.338 148.09 769.965 149.74C766.918 157.11 763.709 163.82 760.336 169.87C756.963 176.03 753.427 180.925 749.727 184.555C746.137 188.185 742.274 190 738.14 190ZM737.65 184.72C739.826 184.72 742.764 182.52 746.463 178.12C750.271 173.83 754.352 166.405 758.704 155.845C754.352 158.045 750.271 160.3 746.463 162.61C742.764 165.03 739.718 167.56 737.324 170.2C734.93 172.84 733.733 175.755 733.733 178.945C733.733 180.705 734.114 182.08 734.876 183.07C735.637 184.17 736.562 184.72 737.65 184.72Z" fill="#FFB8B8"/>
<path d="M806.632 149.08C801.954 149.08 798.635 147.595 796.677 144.625C794.718 141.765 793.739 138.245 793.739 134.065C793.739 130.655 794.283 127.135 795.371 123.505C796.459 119.875 797.874 116.465 799.614 113.275C801.464 110.085 803.477 107.5 805.653 105.52C807.938 103.54 810.223 102.55 812.508 102.55C813.487 102.55 814.629 102.825 815.935 103.375C814.956 104.255 813.759 105.905 812.344 108.325C811.039 110.635 809.787 113.33 808.591 116.41C807.394 119.38 806.36 122.35 805.49 125.32C804.728 128.29 804.347 130.82 804.347 132.91C804.347 136.21 804.891 138.63 805.979 140.17C807.067 141.6 808.482 142.315 810.223 142.315C812.508 142.315 815.228 141.105 818.383 138.685C821.538 136.155 824.639 132.965 827.686 129.115C824.639 126.585 822.245 123.285 820.505 119.215C818.872 115.035 818.056 110.8 818.056 106.51C818.056 102.88 818.655 99.47 819.852 96.28C821.157 93.09 823.007 90.56 825.401 88.69C827.794 86.71 830.678 85.72 834.05 85.72C838.511 85.72 841.504 86.93 843.027 89.35C844.55 91.77 845.312 94.795 845.312 98.425C845.312 102.715 844.278 107.5 842.211 112.78C840.143 117.95 837.532 122.955 834.377 127.795C836.335 128.895 838.403 129.445 840.579 129.445C843.081 129.445 846.128 128.62 849.718 126.97C853.309 125.21 856.083 122.075 858.042 117.565L860 119.215C857.824 124.385 854.723 128.07 850.697 130.27C846.78 132.36 843.027 133.405 839.436 133.405C836.499 133.405 833.887 132.855 831.602 131.755C827.903 136.705 823.823 140.83 819.362 144.13C815.01 147.43 810.767 149.08 806.632 149.08ZM830.623 124.825C833.343 120.755 835.574 116.52 837.315 112.12C839.164 107.61 840.089 103.375 840.089 99.415C840.089 96.225 839.599 93.915 838.62 92.485C837.75 90.945 836.607 90.175 835.193 90.175C833.017 90.175 830.786 91.77 828.502 94.96C826.217 98.15 825.074 102.165 825.074 107.005C825.074 110.195 825.509 113.44 826.38 116.74C827.359 119.93 828.774 122.625 830.623 124.825Z" fill="#FFB8B8"/>
<path d="M400.151 158.155C392.426 158.155 386.17 156.175 381.383 152.215C376.704 148.365 373.277 143.36 371.101 137.2C369.034 131.04 368 124.605 368 117.895C368 109.205 369.306 100.46 371.917 91.66C374.528 82.86 378.064 74.5 382.525 66.58C387.095 58.55 392.263 51.455 398.03 45.295C403.796 39.025 409.835 34.13 416.145 30.61C422.565 26.98 428.875 25.165 435.077 25.165C439.538 25.165 443.128 26.265 445.848 28.465C448.677 30.555 450.092 34.185 450.092 39.355C450.092 42.545 449.548 46.175 448.46 50.245C447.372 54.205 445.903 58.055 444.053 61.795C442.204 65.425 440.136 68.45 437.851 70.87C435.675 73.29 433.445 74.5 431.16 74.5C430.29 74.5 429.365 74.225 428.386 73.675C427.515 73.125 426.754 72.135 426.101 70.705C427.733 68.835 429.528 66.525 431.487 63.775C433.554 60.915 435.512 57.945 437.362 54.865C439.212 51.675 440.68 48.595 441.768 45.625C442.965 42.545 443.564 39.85 443.564 37.54C443.564 35.34 442.911 33.58 441.605 32.26C440.408 30.83 438.395 30.115 435.567 30.115C430.888 30.115 425.992 32.04 420.878 35.89C415.873 39.74 410.977 44.91 406.19 51.4C401.511 57.78 397.268 64.93 393.46 72.85C389.652 80.77 386.605 88.855 384.32 97.105C382.144 105.355 381.056 113.22 381.056 120.7C381.056 126.09 381.818 131.26 383.341 136.21C384.864 141.05 387.313 144.955 390.685 147.925C394.167 151.005 398.628 152.545 404.068 152.545C409.835 152.545 415.547 150.895 421.205 147.595C426.971 144.295 432.248 139.95 437.035 134.56C441.823 129.17 445.631 123.34 448.46 117.07L450.745 118.72C447.154 125.87 442.802 132.47 437.688 138.52C432.575 144.46 426.862 149.19 420.552 152.71C414.241 156.34 407.441 158.155 400.151 158.155Z" stroke="black" stroke-width="2" mask="url(#path-91-outside-1)"/>
<path d="M452.889 151.555C449.516 151.555 446.687 150.4 444.403 148.09C442.009 145.89 440.812 142.48 440.812 137.86C440.812 133.9 441.683 129.665 443.423 125.155C445.164 120.535 447.558 116.025 450.604 111.625C453.651 107.115 457.078 103.045 460.886 99.415C464.803 95.675 468.883 92.705 473.127 90.505C477.479 88.305 481.776 87.205 486.02 87.205C490.263 87.205 493.799 88.36 496.628 90.67C499.457 92.87 500.871 95.84 500.871 99.58C500.871 102.33 500.11 104.2 498.586 105.19C497.172 106.18 495.268 106.675 492.874 106.675C493.418 104.695 493.69 102.77 493.69 100.9C493.69 98.37 493.092 96.225 491.895 94.465C490.698 92.595 488.631 91.66 485.693 91.66C482.647 91.66 479.546 92.76 476.391 94.96C473.235 97.05 470.189 99.91 467.251 103.54C464.314 107.06 461.702 110.91 459.417 115.09C457.133 119.27 455.337 123.395 454.032 127.465C452.726 131.535 452.073 135.165 452.073 138.355C452.073 142.645 453.542 144.79 456.48 144.79C458.982 144.79 461.702 143.635 464.64 141.325C467.578 138.905 470.57 135.88 473.616 132.25C476.771 128.51 479.764 124.66 482.592 120.7C485.421 116.74 487.924 113.11 490.1 109.81C490.535 109.15 490.807 108.82 490.916 108.82C491.895 108.93 493.201 109.37 494.833 110.14C496.465 110.8 497.281 111.735 497.281 112.945C497.281 113.935 496.791 115.31 495.812 117.07C494.833 118.72 493.745 120.645 492.548 122.845C491.351 125.045 490.263 127.3 489.284 129.61C488.305 131.81 487.815 133.9 487.815 135.88C487.815 137.53 488.25 139.18 489.121 140.83C489.991 142.37 491.405 143.14 493.364 143.14C496.302 143.14 500.164 140.995 504.951 136.705C509.739 132.305 514.58 125.76 519.477 117.07L521.109 118.72C518.824 124.66 515.886 129.885 512.296 134.395C508.705 138.905 504.843 142.425 500.708 144.955C496.682 147.485 492.711 148.75 488.794 148.75C484.768 148.75 481.776 147.54 479.818 145.12C477.968 142.7 477.043 140.06 477.043 137.2C477.043 135.77 477.207 134.175 477.533 132.415C472.855 138.795 468.557 143.58 464.64 146.77C460.832 149.96 456.915 151.555 452.889 151.555Z" stroke="black" stroke-width="2" mask="url(#path-91-outside-1)"/>
<path d="M530.011 151.39C520.327 151.39 515.486 145.945 515.486 135.055C515.486 130.215 516.356 124.275 518.097 117.235C519.947 110.085 522.232 102.77 524.952 95.29C523.864 95.07 522.83 94.905 521.851 94.795C520.871 94.575 519.947 94.3 519.076 93.97V91C519.947 91.11 520.98 91.22 522.177 91.33C523.374 91.44 524.734 91.55 526.257 91.66C528.542 85.72 530.99 80 533.601 74.5C536.213 68.89 538.77 63.94 541.272 59.65C543.883 55.25 546.331 51.785 548.616 49.255C551.01 46.615 553.023 45.295 554.655 45.295C555.525 45.295 556.287 45.625 556.94 46.285C557.701 46.835 558.082 47.715 558.082 48.925C558.082 50.795 556.94 53.875 554.655 58.165C552.37 62.345 549.541 67.35 546.168 73.18C542.795 79.01 539.531 85.335 536.376 92.155H542.414C546.005 92.155 549.759 92.1 553.676 91.99C557.701 91.88 561.727 91.605 565.753 91.165V94.135C553.893 95.455 544.319 96.115 537.029 96.115H534.581C532.078 101.945 529.957 107.94 528.216 114.1C526.475 120.26 525.604 126.255 525.604 132.085C525.604 136.815 526.312 140.225 527.726 142.315C529.141 144.295 531.48 145.285 534.744 145.285C540.402 145.285 545.951 142.755 551.391 137.695C556.831 132.635 561.618 125.76 565.753 117.07L567.874 118.72C565.263 124.88 561.945 130.435 557.919 135.385C554.002 140.335 549.65 144.24 544.863 147.1C540.075 149.96 535.125 151.39 530.011 151.39Z" stroke="black" stroke-width="2" mask="url(#path-91-outside-1)"/>
<path d="M570.511 151.555C567.138 151.555 564.309 150.4 562.024 148.09C559.631 145.89 558.434 142.48 558.434 137.86C558.434 133.9 559.304 129.665 561.045 125.155C562.786 120.535 565.18 116.025 568.226 111.625C571.273 107.115 574.7 103.045 578.508 99.415C582.425 95.675 586.505 92.705 590.748 90.505C595.101 88.305 599.398 87.205 603.642 87.205C607.885 87.205 611.421 88.36 614.25 90.67C617.079 92.87 618.493 95.84 618.493 99.58C618.493 102.33 617.732 104.2 616.208 105.19C614.794 106.18 612.89 106.675 610.496 106.675C611.04 104.695 611.312 102.77 611.312 100.9C611.312 98.37 610.714 96.225 609.517 94.465C608.32 92.595 606.253 91.66 603.315 91.66C600.269 91.66 597.168 92.76 594.013 94.96C590.857 97.05 587.811 99.91 584.873 103.54C581.935 107.06 579.324 110.91 577.039 115.09C574.754 119.27 572.959 123.395 571.654 127.465C570.348 131.535 569.695 135.165 569.695 138.355C569.695 142.645 571.164 144.79 574.102 144.79C576.604 144.79 579.324 143.635 582.262 141.325C585.2 138.905 588.192 135.88 591.238 132.25C594.393 128.51 597.385 124.66 600.214 120.7C603.043 116.74 605.546 113.11 607.722 109.81C608.157 109.15 608.429 108.82 608.538 108.82C609.517 108.93 610.823 109.37 612.455 110.14C614.087 110.8 614.903 111.735 614.903 112.945C614.903 113.935 614.413 115.31 613.434 117.07C612.455 118.72 611.367 120.645 610.17 122.845C608.973 125.045 607.885 127.3 606.906 129.61C605.926 131.81 605.437 133.9 605.437 135.88C605.437 137.53 605.872 139.18 606.743 140.83C607.613 142.37 609.027 143.14 610.986 143.14C613.923 143.14 617.786 140.995 622.573 136.705C627.361 132.305 632.202 125.76 637.099 117.07L638.731 118.72C636.446 124.66 633.508 129.885 629.918 134.395C626.327 138.905 622.465 142.425 618.33 144.955C614.304 147.485 610.333 148.75 606.416 148.75C602.39 148.75 599.398 147.54 597.44 145.12C595.59 142.7 594.665 140.06 594.665 137.2C594.665 135.77 594.829 134.175 595.155 132.415C590.476 138.795 586.179 143.58 582.262 146.77C578.454 149.96 574.537 151.555 570.511 151.555ZM610.659 76.15C609.898 75.71 609.299 74.995 608.864 74.005C608.538 73.015 608.375 72.3 608.375 71.86C608.375 70.87 608.919 69.33 610.007 67.24C611.203 65.04 612.672 62.785 614.413 60.475C616.154 58.055 618.004 56.02 619.962 54.37C621.921 52.72 623.716 51.895 625.348 51.895C626.218 51.895 626.98 52.28 627.633 53.05C628.394 53.71 628.83 55.03 628.938 57.01C625.021 60.42 621.594 63.665 618.656 66.745C615.719 69.825 613.053 72.96 610.659 76.15Z" stroke="black" stroke-width="2" mask="url(#path-91-outside-1)"/>
<path d="M647.306 148.75C642.628 148.75 639.255 147.1 637.188 143.8C635.229 140.61 634.25 136.595 634.25 131.755C634.25 126.475 635.229 120.205 637.188 112.945C639.146 105.685 641.703 98.04 644.858 90.01C648.122 81.98 651.659 74.17 655.467 66.58C659.275 58.88 663.083 51.895 666.891 45.625C670.699 39.355 674.181 34.35 677.336 30.61C680.6 26.87 683.157 25 685.007 25C686.203 25 687.183 25.715 687.944 27.145C688.706 28.465 689.304 30.115 689.74 32.095C690.175 33.965 690.392 35.67 690.392 37.21C690.392 40.18 689.631 44.085 688.108 48.925C686.693 53.655 684.626 58.99 681.906 64.93C679.295 70.76 676.139 76.7 672.44 82.75C668.849 88.69 664.878 94.41 660.526 99.91C656.283 105.41 651.767 110.14 646.98 114.1C646.327 117.07 645.783 119.985 645.348 122.845C645.022 125.595 644.858 128.235 644.858 130.765C644.858 139.235 647.252 143.47 652.039 143.47C654.977 143.47 657.86 142.15 660.689 139.51C663.627 136.87 666.347 133.57 668.849 129.61C671.461 125.54 673.691 121.36 675.541 117.07L677.989 118.39C673.637 127.74 668.904 135.165 663.79 140.665C658.676 146.055 653.182 148.75 647.306 148.75ZM648.449 108.49C652.257 104.64 655.956 100.24 659.547 95.29C663.137 90.23 666.456 85.005 669.502 79.615C672.658 74.225 675.432 69 677.826 63.94C680.219 58.88 682.069 54.37 683.375 50.41C684.68 46.34 685.333 43.205 685.333 41.005C685.333 39.905 685.17 39.19 684.843 38.86C684.626 38.53 684.408 38.365 684.191 38.365C683.32 38.365 681.797 39.795 679.621 42.655C677.554 45.405 675.106 49.145 672.277 53.875C669.448 58.605 666.565 63.995 663.627 70.045C660.689 76.095 657.86 82.42 655.14 89.02C652.529 95.62 650.299 102.11 648.449 108.49Z" stroke="black" stroke-width="2" mask="url(#path-91-outside-1)"/>
<path d="M683.591 149.08C678.913 149.08 675.594 147.595 673.636 144.625C671.677 141.765 670.698 138.245 670.698 134.065C670.698 130.655 671.242 127.135 672.33 123.505C673.418 119.875 674.833 116.465 676.574 113.275C678.423 110.085 680.436 107.5 682.612 105.52C684.897 103.54 687.182 102.55 689.467 102.55C690.446 102.55 691.588 102.825 692.894 103.375C691.915 104.255 690.718 105.905 689.304 108.325C687.998 110.635 686.747 113.33 685.55 116.41C684.353 119.38 683.319 122.35 682.449 125.32C681.687 128.29 681.307 130.82 681.307 132.91C681.307 136.21 681.85 138.63 682.939 140.17C684.027 141.6 685.441 142.315 687.182 142.315C689.467 142.315 692.187 141.105 695.342 138.685C698.497 136.155 701.598 132.965 704.645 129.115C701.598 126.585 699.205 123.285 697.464 119.215C695.832 115.035 695.016 110.8 695.016 106.51C695.016 102.88 695.614 99.47 696.811 96.28C698.117 93.09 699.966 90.56 702.36 88.69C704.754 86.71 707.637 85.72 711.01 85.72C715.471 85.72 718.463 86.93 719.986 89.35C721.509 91.77 722.271 94.795 722.271 98.425C722.271 102.715 721.237 107.5 719.17 112.78C717.103 117.95 714.491 122.955 711.336 127.795C713.295 128.895 715.362 129.445 717.538 129.445C720.04 129.445 723.087 128.62 726.677 126.97C730.268 125.21 733.042 122.075 735.001 117.565L736.959 119.215C734.783 124.385 731.682 128.07 727.657 130.27C723.74 132.36 719.986 133.405 716.395 133.405C713.458 133.405 710.846 132.855 708.562 131.755C704.862 136.705 700.782 140.83 696.321 144.13C691.969 147.43 687.726 149.08 683.591 149.08ZM707.582 124.825C710.302 120.755 712.533 116.52 714.274 112.12C716.123 107.61 717.048 103.375 717.048 99.415C717.048 96.225 716.559 93.915 715.579 92.485C714.709 90.945 713.567 90.175 712.152 90.175C709.976 90.175 707.746 91.77 705.461 94.96C703.176 98.15 702.033 102.165 702.033 107.005C702.033 110.195 702.469 113.44 703.339 116.74C704.318 119.93 705.733 122.625 707.582 124.825Z" stroke="black" stroke-width="2" mask="url(#path-91-outside-1)"/>
<path d="M738.14 190C735.746 190 733.57 189.23 731.612 187.69C729.653 186.26 728.674 183.84 728.674 180.43C728.674 177.13 729.708 174.05 731.775 171.19C733.733 168.44 736.29 165.855 739.446 163.435C742.601 161.125 746.028 158.98 749.727 157C753.536 155.02 757.126 153.15 760.499 151.39C762.022 147.54 763.437 143.415 764.742 139.015C766.157 134.505 767.517 129.555 768.822 124.165C764.688 130.215 760.336 135.275 755.766 139.345C751.305 143.305 746.79 145.285 742.22 145.285C738.303 145.285 735.257 143.8 733.081 140.83C731.013 137.86 729.98 134.01 729.98 129.28C729.98 123.56 731.34 118.115 734.06 112.945C736.889 107.775 740.534 103.21 744.994 99.25C749.455 95.29 754.188 92.21 759.193 90.01C764.198 87.7 768.877 86.545 773.229 86.545C776.384 86.545 778.615 87.095 779.92 88.195C781.335 89.185 782.042 90.395 782.042 91.825C782.042 92.815 781.77 93.585 781.226 94.135C780.682 94.685 780.301 95.015 780.083 95.125C778.995 93.475 776.819 92.65 773.555 92.65C769.312 92.65 765.177 93.915 761.152 96.445C757.235 98.975 753.753 102.22 750.707 106.18C747.66 110.14 745.212 114.265 743.362 118.555C741.622 122.735 740.751 126.585 740.751 130.105C740.751 132.745 741.241 134.78 742.22 136.21C743.308 137.53 744.722 138.19 746.463 138.19C749.619 138.19 753.372 136.1 757.724 131.92C762.185 127.63 766.483 122.46 770.618 116.41C770.944 114.87 771.216 113.495 771.434 112.285C771.76 111.075 772.141 109.535 772.576 107.665C772.902 106.125 773.664 104.365 774.861 102.385C776.167 100.295 778.179 99.25 780.899 99.25C781.879 99.25 783.021 99.415 784.327 99.745C784.327 101.505 783.783 104.75 782.695 109.48C781.715 114.1 780.247 119.545 778.288 125.815C776.438 131.975 774.262 138.355 771.76 144.955C777.091 142.425 782.259 138.74 787.264 133.9C792.269 128.95 795.969 123.34 798.362 117.07L800.484 118.72C798.852 123.67 796.241 128.18 792.65 132.25C789.06 136.32 785.197 139.84 781.063 142.81C777.037 145.78 773.338 148.09 769.965 149.74C766.918 157.11 763.709 163.82 760.336 169.87C756.963 176.03 753.427 180.925 749.727 184.555C746.137 188.185 742.274 190 738.14 190ZM737.65 184.72C739.826 184.72 742.764 182.52 746.463 178.12C750.271 173.83 754.352 166.405 758.704 155.845C754.352 158.045 750.271 160.3 746.463 162.61C742.764 165.03 739.718 167.56 737.324 170.2C734.93 172.84 733.733 175.755 733.733 178.945C733.733 180.705 734.114 182.08 734.876 183.07C735.637 184.17 736.562 184.72 737.65 184.72Z" stroke="black" stroke-width="2" mask="url(#path-91-outside-1)"/>
<path d="M806.632 149.08C801.954 149.08 798.635 147.595 796.677 144.625C794.718 141.765 793.739 138.245 793.739 134.065C793.739 130.655 794.283 127.135 795.371 123.505C796.459 119.875 797.874 116.465 799.614 113.275C801.464 110.085 803.477 107.5 805.653 105.52C807.938 103.54 810.223 102.55 812.508 102.55C813.487 102.55 814.629 102.825 815.935 103.375C814.956 104.255 813.759 105.905 812.344 108.325C811.039 110.635 809.787 113.33 808.591 116.41C807.394 119.38 806.36 122.35 805.49 125.32C804.728 128.29 804.347 130.82 804.347 132.91C804.347 136.21 804.891 138.63 805.979 140.17C807.067 141.6 808.482 142.315 810.223 142.315C812.508 142.315 815.228 141.105 818.383 138.685C821.538 136.155 824.639 132.965 827.686 129.115C824.639 126.585 822.245 123.285 820.505 119.215C818.872 115.035 818.056 110.8 818.056 106.51C818.056 102.88 818.655 99.47 819.852 96.28C821.157 93.09 823.007 90.56 825.401 88.69C827.794 86.71 830.678 85.72 834.05 85.72C838.511 85.72 841.504 86.93 843.027 89.35C844.55 91.77 845.312 94.795 845.312 98.425C845.312 102.715 844.278 107.5 842.211 112.78C840.143 117.95 837.532 122.955 834.377 127.795C836.335 128.895 838.403 129.445 840.579 129.445C843.081 129.445 846.128 128.62 849.718 126.97C853.309 125.21 856.083 122.075 858.042 117.565L860 119.215C857.824 124.385 854.723 128.07 850.697 130.27C846.78 132.36 843.027 133.405 839.436 133.405C836.499 133.405 833.887 132.855 831.602 131.755C827.903 136.705 823.823 140.83 819.362 144.13C815.01 147.43 810.767 149.08 806.632 149.08ZM830.623 124.825C833.343 120.755 835.574 116.52 837.315 112.12C839.164 107.61 840.089 103.375 840.089 99.415C840.089 96.225 839.599 93.915 838.62 92.485C837.75 90.945 836.607 90.175 835.193 90.175C833.017 90.175 830.786 91.77 828.502 94.96C826.217 98.15 825.074 102.165 825.074 107.005C825.074 110.195 825.509 113.44 826.38 116.74C827.359 119.93 828.774 122.625 830.623 124.825Z" stroke="black" stroke-width="2" mask="url(#path-91-outside-1)"/>
</g>
</g>
<defs>
<filter id="filter0_d" x="363" y="24" width="502.207" height="175" filterUnits="userSpaceOnUse" color-interpolation-filters="sRGB">
<feFlood flood-opacity="0" result="BackgroundImageFix"/>
<feColorMatrix in="SourceAlpha" type="matrix" values="0 0 0 0 0 0 0 0 0 0 0 0 0 0 0 0 0 0 127 0"/>
<feOffset dy="4"/>
<feGaussianBlur stdDeviation="2"/>
<feColorMatrix type="matrix" values="0 0 0 0 0 0 0 0 0 0 0 0 0 0 0 0 0 0 0.25 0"/>
<feBlend mode="normal" in2="BackgroundImageFix" result="effect1_dropShadow"/>
<feBlend mode="normal" in="SourceGraphic" in2="effect1_dropShadow" result="shape"/>
</filter>
<clipPath id="clip0">
<rect width="1200" height="600" fill="white"/>
</clipPath>
<clipPath id="clip1">
<rect width="688" height="574" fill="white" transform="translate(15 5)"/>
</clipPath>
</defs>
</svg>
