<svg width="1200" height="600" viewBox="0 0 1200 600" fill="none" xmlns="http://www.w3.org/2000/svg">
<rect width="1200" height="600" fill="#E5E5E5"/>
<g clip-path="url(#clip0)">
<rect width="1200" height="600" fill="white"/>
<g filter="url(#filter0_d)">
<path d="M56.488 126.352C53.032 126.352 49.768 125.712 46.696 124.432C43.624 123.216 41.128 121.328 39.208 118.768C37.352 116.208 36.424 113.008 36.424 109.168C36.424 105.84 37.064 103.248 38.344 101.392C39.688 99.536 41.32 98.224 43.24 97.456C45.16 96.688 46.984 96.304 48.712 96.304C46.984 98.16 45.672 100.208 44.776 102.448C43.88 104.688 43.432 106.928 43.432 109.168C43.432 111.536 43.944 113.744 44.968 115.792C46.056 117.84 47.688 119.472 49.864 120.688C52.04 121.968 54.792 122.608 58.12 122.608C61 122.608 63.816 122.064 66.568 120.976C69.32 119.952 71.56 118.416 73.288 116.368C75.08 114.256 75.976 111.664 75.976 108.592C75.976 105.84 75.272 103.472 73.864 101.488C72.456 99.504 70.632 97.744 68.392 96.208C66.216 94.672 63.88 93.2 61.384 91.792C58.888 90.384 56.52 88.912 54.28 87.376C52.104 85.776 50.312 83.952 48.904 81.904C47.496 79.856 46.792 77.392 46.792 74.512C46.792 71.824 47.432 69.008 48.712 66.064C49.992 63.12 51.816 60.336 54.184 57.712C56.616 55.088 59.496 52.976 62.824 51.376C66.216 49.712 69.992 48.88 74.152 48.88C77.928 48.88 80.552 49.808 82.024 51.664C83.496 53.456 84.232 55.728 84.232 58.48C84.232 60.784 83.816 63.28 82.984 65.968C82.216 68.592 81.256 71.12 80.104 73.552C78.952 75.92 77.864 77.936 76.84 79.6C75.688 79.344 74.856 78.864 74.344 78.16C73.896 77.392 73.672 76.496 73.672 75.472C73.672 74.128 73.96 72.592 74.536 70.864C75.112 69.136 75.752 67.344 76.456 65.488C77.224 63.632 77.896 61.84 78.472 60.112C79.048 58.32 79.336 56.72 79.336 55.312C79.336 54.032 78.952 53.04 78.184 52.336C77.416 51.568 76.008 51.184 73.96 51.184C70.952 51.184 68.168 51.888 65.608 53.296C63.048 54.704 60.808 56.528 58.888 58.768C56.968 60.944 55.464 63.248 54.376 65.68C53.352 68.112 52.84 70.32 52.84 72.304C52.84 74.672 53.512 76.72 54.856 78.448C56.264 80.112 58.056 81.648 60.232 83.056C62.408 84.4 64.712 85.776 67.144 87.184C69.64 88.528 71.976 90.032 74.152 91.696C76.328 93.36 78.088 95.344 79.432 97.648C80.84 99.888 81.544 102.64 81.544 105.904C81.544 109.232 80.808 112.176 79.336 114.736C77.864 117.232 75.88 119.344 73.384 121.072C70.952 122.8 68.264 124.112 65.32 125.008C62.376 125.904 59.432 126.352 56.488 126.352ZM85.8055 126.352C86.1895 125.456 87.2455 123.088 88.9735 119.248C90.7015 115.472 92.9415 110.544 95.6935 104.464C98.5095 98.32 101.646 91.376 105.102 83.632C108.622 75.824 112.334 67.568 116.238 58.864C116.43 58.416 116.622 57.84 116.814 57.136C117.07 56.368 117.198 55.632 117.198 54.928C117.198 54.224 116.974 53.648 116.526 53.2C116.142 52.688 115.278 52.432 113.934 52.432C111.246 52.432 109.006 53.36 107.214 55.216C105.486 57.008 104.174 59.248 103.278 61.936C102.446 64.624 102.03 67.28 102.03 69.904C102.03 70.544 102.03 71.088 102.03 71.536C102.094 71.984 102.158 72.432 102.222 72.88C101.006 72.88 100.014 72.464 99.2455 71.632C98.5415 70.736 97.9975 69.68 97.6135 68.464C97.2935 67.184 97.1335 66.032 97.1335 65.008C97.1335 62.896 97.7095 60.88 98.8615 58.96C100.014 57.04 101.486 55.312 103.278 53.776C105.134 52.24 107.15 51.056 109.326 50.224C111.566 49.328 113.742 48.88 115.854 48.88C117.966 48.88 119.726 49.488 121.134 50.704C122.606 51.856 123.694 53.968 124.398 57.04C125.166 60.112 125.55 64.56 125.55 70.384C125.55 74.352 125.39 78.576 125.07 83.056C124.814 87.536 124.526 91.952 124.206 96.304C123.886 100.656 123.662 104.624 123.534 108.208C124.558 104.304 125.998 100.144 127.854 95.728C129.774 91.312 131.854 86.928 134.094 82.576C136.398 78.16 138.67 74.032 140.91 70.192C143.15 66.352 145.166 63.024 146.958 60.208C148.75 57.392 150.062 55.344 150.894 54.064C151.79 52.784 152.558 51.824 153.198 51.184C153.838 50.48 154.67 50.128 155.694 50.128C156.59 50.128 157.614 50.352 158.766 50.8C158.318 51.952 157.678 53.68 156.846 55.984C156.078 58.224 155.278 60.976 154.446 64.24C153.422 68.144 152.398 72.592 151.374 77.584C150.35 82.512 149.39 87.536 148.494 92.656C147.662 97.776 146.99 102.608 146.478 107.152C145.966 111.632 145.71 115.408 145.71 118.48C145.71 119.888 145.774 120.976 145.902 121.744C146.03 122.512 146.19 123.184 146.382 123.76C146.638 124.4 146.894 125.264 147.15 126.352C143.822 126.352 141.678 125.52 140.718 123.856C139.758 122.256 139.278 119.504 139.278 115.6C139.278 107.984 140.238 99.824 142.158 91.12C144.142 82.352 146.382 73.264 148.878 63.856C147.022 66.224 145.07 69.232 143.022 72.88C141.038 76.464 139.022 80.368 136.974 84.592C134.99 88.752 133.07 92.944 131.214 97.168C129.422 101.328 127.822 105.2 126.414 108.784C125.006 112.368 123.918 115.344 123.15 117.712C122.766 117.84 122.51 117.936 122.382 118C122.254 118.064 122.03 118.096 121.71 118.096C119.982 118.096 118.83 117.072 118.254 115.024C117.742 112.976 117.486 110.096 117.486 106.384C117.486 103.76 117.55 100.656 117.678 97.072C117.87 93.424 118.062 89.68 118.254 85.84C118.446 82 118.606 78.32 118.734 74.8C118.926 71.216 119.022 68.144 119.022 65.584C119.022 64.304 118.99 63.248 118.926 62.416C118.926 61.584 118.894 60.848 118.83 60.208C113.71 72.112 109.422 82.288 105.966 90.736C102.51 99.12 99.5975 105.936 97.2295 111.184C94.9255 116.432 92.8775 120.272 91.0855 122.704C89.2935 125.136 87.5335 126.352 85.8055 126.352ZM206.618 126.352C202.074 126.352 198.394 125.2 195.578 122.896C192.826 120.656 190.81 117.744 189.53 114.16C188.314 110.576 187.706 106.832 187.706 102.928C187.706 97.872 188.474 92.784 190.01 87.664C191.546 82.544 193.626 77.68 196.25 73.072C198.938 68.4 201.978 64.272 205.37 60.688C208.762 57.04 212.314 54.192 216.026 52.144C219.802 50.032 223.514 48.976 227.162 48.976C229.786 48.976 231.898 49.616 233.498 50.896C235.162 52.112 235.994 54.224 235.994 57.232C235.994 59.088 235.674 61.2 235.034 63.568C234.394 65.872 233.53 68.112 232.442 70.288C231.354 72.4 230.138 74.16 228.794 75.568C227.514 76.976 226.202 77.68 224.858 77.68C224.346 77.68 223.802 77.52 223.226 77.2C222.714 76.88 222.266 76.304 221.882 75.472C222.842 74.384 223.898 73.04 225.05 71.44C226.266 69.776 227.418 68.048 228.506 66.256C229.594 64.4 230.458 62.608 231.098 60.88C231.802 59.088 232.154 57.52 232.154 56.176C232.154 54.896 231.77 53.872 231.002 53.104C230.298 52.272 229.114 51.856 227.45 51.856C224.698 51.856 221.818 52.976 218.81 55.216C215.866 57.456 212.986 60.464 210.17 64.24C207.418 67.952 204.922 72.112 202.682 76.72C200.442 81.328 198.65 86.032 197.306 90.832C196.026 95.632 195.386 100.208 195.386 104.56C195.386 107.696 195.834 110.704 196.73 113.584C197.626 116.4 199.066 118.672 201.05 120.4C203.098 122.192 205.722 123.088 208.922 123.088C212.314 123.088 215.674 122.128 219.002 120.208C222.394 118.288 225.498 115.76 228.314 112.624C231.13 109.488 233.37 106.096 235.034 102.448L236.378 103.408C234.266 107.568 231.706 111.408 228.698 114.928C225.69 118.384 222.33 121.136 218.618 123.184C214.906 125.296 210.906 126.352 206.618 126.352ZM249.639 120.496C247.463 120.496 245.735 119.92 244.455 118.768C243.239 117.616 242.631 116.112 242.631 114.256C242.631 112.336 243.079 110.32 243.975 108.208C244.871 106.096 245.735 104.016 246.567 101.968C247.463 99.856 247.911 97.968 247.911 96.304C247.911 94.256 247.303 92.752 246.087 91.792C244.935 90.768 243.751 89.84 242.535 89.008C241.063 92.784 239.527 96.368 237.927 99.76C236.327 103.152 235.015 105.712 233.991 107.44L233.127 105.808C234.023 104.144 235.175 101.712 236.583 98.512C238.055 95.312 239.495 91.664 240.903 87.568C240.263 86.928 239.943 86.16 239.943 85.264C239.943 83.344 240.487 81.776 241.575 80.56C242.663 79.344 243.463 78.736 243.975 78.736C244.679 78.736 245.063 79.056 245.127 79.696C245.255 80.272 245.319 80.72 245.319 81.04C245.319 81.36 245.127 82 244.743 82.96C244.423 83.856 244.263 84.4 244.263 84.592C244.263 85.488 244.743 86.32 245.703 87.088C246.727 87.792 247.879 88.624 249.159 89.584C250.439 90.48 251.559 91.6 252.519 92.944C253.543 94.224 254.055 95.888 254.055 97.936C254.055 99.856 253.639 101.808 252.807 103.792C252.039 105.776 251.239 107.664 250.407 109.456C249.639 111.248 249.255 112.816 249.255 114.16C249.255 115.312 249.543 116.08 250.119 116.464C250.695 116.848 251.367 117.04 252.135 117.04C253.671 117.04 255.239 116.56 256.839 115.6C258.503 114.64 260.103 113.424 261.639 111.952C263.175 110.48 264.551 108.944 265.767 107.344C266.983 105.68 267.879 104.144 268.455 102.736L269.703 103.696C268.487 106.384 266.823 109.04 264.711 111.664C262.599 114.224 260.231 116.336 257.607 118C255.047 119.664 252.391 120.496 249.639 120.496ZM276.774 122.224C272.87 122.224 269.926 121.136 267.942 118.96C266.022 116.848 265.062 114.224 265.062 111.088C265.062 108.208 265.766 105.168 267.174 101.968C268.646 98.768 270.566 95.76 272.934 92.944C275.366 90.128 278.022 87.856 280.902 86.128C283.782 84.336 286.63 83.44 289.446 83.44C290.918 83.44 292.262 83.824 293.478 84.592C294.758 85.36 295.398 86.928 295.398 89.296C295.398 91.728 294.662 94.032 293.19 96.208C291.782 98.32 289.894 100.208 287.526 101.872C285.222 103.536 282.662 104.912 279.846 106C277.094 107.024 274.342 107.664 271.59 107.92C271.462 108.56 271.366 109.168 271.302 109.744C271.238 110.32 271.206 110.864 271.206 111.376C271.206 113.36 271.718 115.216 272.742 116.944C273.83 118.608 275.846 119.44 278.79 119.44C281.542 119.44 284.262 118.672 286.95 117.136C289.638 115.536 292.134 113.456 294.438 110.896C296.742 108.336 298.694 105.52 300.294 102.448L301.446 103.312C299.718 107.152 297.51 110.48 294.822 113.296C292.198 116.112 289.318 118.288 286.182 119.824C283.11 121.424 279.974 122.224 276.774 122.224ZM272.07 106.096C273.798 105.52 275.75 104.688 277.926 103.6C280.102 102.448 282.182 101.104 284.166 99.568C286.214 98.032 287.878 96.336 289.158 94.48C290.502 92.624 291.174 90.672 291.174 88.624C291.174 87.92 291.046 87.376 290.79 86.992C290.534 86.608 289.99 86.416 289.158 86.416C287.622 86.416 285.99 87.024 284.262 88.24C282.534 89.392 280.87 90.928 279.27 92.848C277.67 94.768 276.23 96.88 274.95 99.184C273.67 101.488 272.71 103.792 272.07 106.096ZM302.983 122.512C300.999 122.512 299.335 121.84 297.991 120.496C296.583 119.216 295.879 117.232 295.879 114.544C295.879 112.24 296.391 109.776 297.415 107.152C298.439 104.464 299.847 101.84 301.639 99.28C303.431 96.656 305.447 94.288 307.687 92.176C309.991 90 312.391 88.272 314.887 86.992C317.447 85.712 319.975 85.072 322.471 85.072C324.967 85.072 327.047 85.744 328.711 87.088C330.375 88.368 331.207 90.096 331.207 92.272C331.207 93.872 330.759 94.96 329.863 95.536C329.031 96.112 327.911 96.4 326.503 96.4C326.823 95.248 326.983 94.128 326.983 93.04C326.983 91.568 326.631 90.32 325.927 89.296C325.223 88.208 324.007 87.664 322.279 87.664C320.487 87.664 318.663 88.304 316.807 89.584C314.951 90.8 313.159 92.464 311.431 94.576C309.703 96.624 308.167 98.864 306.823 101.296C305.479 103.728 304.423 106.128 303.655 108.496C302.887 110.864 302.503 112.976 302.503 114.832C302.503 117.328 303.367 118.576 305.095 118.576C306.567 118.576 308.167 117.904 309.895 116.56C311.623 115.152 313.383 113.392 315.175 111.28C317.031 109.104 318.791 106.864 320.455 104.56C322.119 102.256 323.591 100.144 324.871 98.224C325.127 97.84 325.287 97.648 325.351 97.648C325.927 97.712 326.695 97.968 327.655 98.416C328.615 98.8 329.095 99.344 329.095 100.048C329.095 100.624 328.807 101.424 328.231 102.448C327.655 103.408 327.015 104.528 326.311 105.808C325.607 107.088 324.967 108.4 324.391 109.744C323.815 111.024 323.527 112.24 323.527 113.392C323.527 114.352 323.783 115.312 324.295 116.272C324.807 117.168 325.639 117.616 326.791 117.616C328.519 117.616 330.791 116.368 333.607 113.872C336.423 111.312 339.271 107.504 342.151 102.448L343.111 103.408C341.767 106.864 340.039 109.904 337.927 112.528C335.815 115.152 333.543 117.2 331.111 118.672C328.743 120.144 326.407 120.88 324.103 120.88C321.735 120.88 319.975 120.176 318.823 118.768C317.735 117.36 317.191 115.824 317.191 114.16C317.191 113.328 317.287 112.4 317.479 111.376C314.727 115.088 312.199 117.872 309.895 119.728C307.655 121.584 305.351 122.512 302.983 122.512ZM350.46 123.376C347.388 123.376 344.828 122.352 342.78 120.304C340.731 118.256 339.707 115.184 339.707 111.088C339.707 107.888 340.315 104.784 341.532 101.776C342.812 98.704 344.476 95.952 346.523 93.52C348.572 91.088 350.844 89.168 353.34 87.76C355.836 86.288 358.3 85.552 360.732 85.552C363.356 85.552 365.148 86.32 366.108 87.856C367.068 89.392 367.548 90.992 367.548 92.656C367.548 94.512 367.1 96.144 366.204 97.552C365.372 98.96 364.22 99.664 362.748 99.664C361.66 99.664 360.732 99.184 359.964 98.224C360.924 97.712 361.756 96.688 362.46 95.152C363.164 93.552 363.516 92.048 363.516 90.64C363.516 89.872 363.356 89.296 363.036 88.912C362.78 88.464 362.236 88.24 361.404 88.24C359.676 88.24 357.884 89.008 356.028 90.544C354.236 92.08 352.54 94.064 350.94 96.496C349.404 98.928 348.124 101.488 347.1 104.176C346.14 106.864 345.66 109.392 345.66 111.76C345.66 113.744 346.14 115.568 347.1 117.232C348.06 118.896 349.916 119.728 352.668 119.728C355.228 119.728 357.788 119.024 360.348 117.616C362.972 116.208 365.404 114.192 367.644 111.568C369.884 108.944 371.676 105.872 373.02 102.352L374.268 103.312C372.796 107.152 370.78 110.608 368.22 113.68C365.66 116.688 362.844 119.056 359.772 120.784C356.7 122.512 353.596 123.376 350.46 123.376ZM389.651 76.528C388.627 76.528 387.699 76.272 386.867 75.76C386.099 75.248 385.715 74.448 385.715 73.36C385.715 72.016 386.483 70.864 388.019 69.904C389.619 68.88 391.187 68.368 392.723 68.368C393.683 68.368 394.451 68.592 395.027 69.04C395.603 69.488 395.891 70.256 395.891 71.344C395.891 72.56 395.219 73.744 393.875 74.896C392.595 75.984 391.187 76.528 389.651 76.528ZM378.131 120.496C375.635 120.496 373.779 119.696 372.563 118.096C371.347 116.56 370.739 114.672 370.739 112.432C370.739 110.96 370.995 109.104 371.507 106.864C372.083 104.624 372.819 102.288 373.715 99.856C374.611 97.36 375.635 95.024 376.787 92.848C378.003 90.672 379.283 88.912 380.627 87.568C381.971 86.16 383.283 85.456 384.563 85.456C385.139 85.456 385.619 85.648 386.003 86.032C386.451 86.352 386.675 86.864 386.675 87.568C386.675 88.336 386.163 89.584 385.139 91.312C384.179 93.04 383.027 95.024 381.683 97.264C380.339 99.504 379.155 101.872 378.131 104.368C377.171 106.8 376.691 109.136 376.691 111.376C376.691 113.68 377.075 115.216 377.843 115.984C378.611 116.752 379.795 117.136 381.395 117.136C383.571 117.136 385.875 116.048 388.307 113.872C390.803 111.696 393.427 107.888 396.179 102.448L397.043 103.408C395.187 108.912 392.499 113.136 388.979 116.08C385.523 119.024 381.907 120.496 378.131 120.496ZM400.999 121.072C398.247 121.072 396.295 120.208 395.143 118.48C393.991 116.816 393.415 114.768 393.415 112.336C393.415 110.352 393.735 108.304 394.375 106.192C395.015 104.08 395.847 102.096 396.871 100.24C397.959 98.384 399.143 96.88 400.423 95.728C401.767 94.576 403.111 94 404.455 94C405.031 94 405.703 94.16 406.471 94.48C405.895 94.992 405.191 95.952 404.359 97.36C403.591 98.704 402.855 100.272 402.151 102.064C401.447 103.792 400.839 105.52 400.327 107.248C399.879 108.976 399.655 110.448 399.655 111.664C399.655 113.584 399.975 114.992 400.615 115.888C401.255 116.72 402.087 117.136 403.111 117.136C404.455 117.136 406.055 116.432 407.911 115.024C409.767 113.552 411.591 111.696 413.383 109.456C411.591 107.984 410.183 106.064 409.159 103.696C408.199 101.264 407.719 98.8 407.719 96.304C407.719 94.192 408.071 92.208 408.775 90.352C409.543 88.496 410.631 87.024 412.039 85.936C413.447 84.784 415.143 84.208 417.127 84.208C419.751 84.208 421.511 84.912 422.407 86.32C423.303 87.728 423.751 89.488 423.751 91.6C423.751 94.096 423.143 96.88 421.927 99.952C420.711 102.96 419.175 105.872 417.319 108.688C418.471 109.328 419.687 109.648 420.967 109.648C422.439 109.648 424.231 109.168 426.343 108.208C428.455 107.184 430.087 105.36 431.239 102.736L432.391 103.696C431.111 106.704 429.287 108.848 426.919 110.128C424.615 111.344 422.407 111.952 420.295 111.952C418.567 111.952 417.031 111.632 415.687 110.992C413.511 113.872 411.111 116.272 408.487 118.192C405.927 120.112 403.431 121.072 400.999 121.072ZM415.111 106.96C416.711 104.592 418.023 102.128 419.047 99.568C420.135 96.944 420.679 94.48 420.679 92.176C420.679 90.32 420.391 88.976 419.815 88.144C419.303 87.248 418.631 86.8 417.799 86.8C416.519 86.8 415.207 87.728 413.863 89.584C412.519 91.44 411.847 93.776 411.847 96.592C411.847 98.448 412.103 100.336 412.615 102.256C413.191 104.112 414.023 105.68 415.111 106.96ZM460.446 119.92C458.206 119.92 456.51 119.344 455.358 118.192C454.27 117.04 453.726 115.568 453.726 113.776C453.726 112.432 453.95 111.024 454.398 109.552C454.91 108.08 455.39 106.576 455.838 105.04C456.286 103.44 456.51 101.904 456.51 100.432C456.51 98.64 456.126 97.424 455.358 96.784C454.654 96.08 453.758 95.728 452.67 95.728C450.686 95.728 448.67 96.56 446.622 98.224C444.574 99.824 442.59 101.904 440.67 104.464C438.75 106.96 436.958 109.552 435.294 112.24C433.63 114.928 432.158 117.328 430.878 119.44C429.854 119.44 428.893 119.248 427.997 118.864C427.037 118.544 426.301 118.032 425.789 117.328C425.789 117.008 426.141 116.016 426.845 114.352C427.485 112.688 428.253 110.64 429.149 108.208C430.046 105.776 430.846 103.28 431.55 100.72C432.254 98.16 432.605 95.824 432.605 93.712C432.99 93.264 433.598 92.816 434.43 92.368C435.262 91.92 436.126 91.696 437.022 91.696C438.75 91.696 439.614 92.528 439.614 94.192C439.614 95.216 439.326 96.944 438.75 99.376C438.174 101.744 437.438 104.24 436.542 106.864C438.27 104.24 440.19 101.648 442.302 99.088C444.478 96.464 446.782 94.288 449.214 92.56C451.646 90.832 454.078 89.968 456.51 89.968C459.006 89.968 460.798 90.864 461.886 92.656C463.038 94.448 463.614 96.432 463.614 98.608C463.614 100.592 463.294 102.448 462.654 104.176C462.014 105.84 461.342 107.472 460.638 109.072C459.998 110.608 459.678 112.176 459.678 113.776C459.678 115.12 459.934 116.08 460.446 116.656C461.022 117.168 461.726 117.424 462.558 117.424C464.158 117.424 465.758 116.688 467.358 115.216C468.958 113.68 470.494 111.76 471.966 109.456C473.502 107.152 474.846 104.816 475.998 102.448L477.054 103.696C475.07 108.368 472.702 112.24 469.95 115.312C467.198 118.384 464.03 119.92 460.446 119.92ZM484.524 122.224C480.62 122.224 477.676 121.136 475.692 118.96C473.772 116.848 472.812 114.224 472.812 111.088C472.812 108.208 473.516 105.168 474.924 101.968C476.396 98.768 478.316 95.76 480.684 92.944C483.116 90.128 485.772 87.856 488.652 86.128C491.532 84.336 494.38 83.44 497.196 83.44C498.668 83.44 500.012 83.824 501.228 84.592C502.508 85.36 503.148 86.928 503.148 89.296C503.148 91.728 502.412 94.032 500.94 96.208C499.532 98.32 497.644 100.208 495.276 101.872C492.972 103.536 490.412 104.912 487.596 106C484.844 107.024 482.092 107.664 479.34 107.92C479.212 108.56 479.116 109.168 479.052 109.744C478.988 110.32 478.956 110.864 478.956 111.376C478.956 113.36 479.468 115.216 480.492 116.944C481.58 118.608 483.596 119.44 486.54 119.44C489.292 119.44 492.012 118.672 494.7 117.136C497.388 115.536 499.884 113.456 502.188 110.896C504.492 108.336 506.444 105.52 508.044 102.448L509.196 103.312C507.468 107.152 505.26 110.48 502.572 113.296C499.948 116.112 497.068 118.288 493.932 119.824C490.86 121.424 487.724 122.224 484.524 122.224ZM479.82 106.096C481.548 105.52 483.5 104.688 485.676 103.6C487.852 102.448 489.932 101.104 491.916 99.568C493.964 98.032 495.628 96.336 496.908 94.48C498.252 92.624 498.924 90.672 498.924 88.624C498.924 87.92 498.796 87.376 498.54 86.992C498.284 86.608 497.74 86.416 496.908 86.416C495.372 86.416 493.74 87.024 492.012 88.24C490.284 89.392 488.62 90.928 487.02 92.848C485.42 94.768 483.98 96.88 482.7 99.184C481.42 101.488 480.46 103.792 479.82 106.096ZM516.205 122.896C513.197 122.896 510.797 122.224 509.005 120.88C507.277 119.6 506.061 118 505.357 116.08C504.589 114.16 504.205 112.24 504.205 110.32C504.205 108.4 504.461 106.928 504.973 105.904C505.485 104.88 506.093 104.112 506.797 103.6C507.565 103.088 508.269 102.704 508.909 102.448C509.613 102.192 510.093 101.936 510.349 101.68C512.269 99.568 514.029 97.36 515.629 95.056C517.229 92.752 518.637 90.32 519.853 87.76V86.608C519.853 84.24 520.237 82.576 521.005 81.616C521.837 80.592 522.701 80.08 523.597 80.08C524.621 80.08 525.133 80.496 525.133 81.328C525.133 81.648 525.037 82.16 524.845 82.864C524.653 83.568 524.557 84.464 524.557 85.552C524.557 87.664 524.973 89.968 525.805 92.464C526.637 94.896 527.469 97.488 528.301 100.24C529.133 102.928 529.549 105.744 529.549 108.688C529.549 110.352 529.357 111.92 528.973 113.392C531.213 113.008 533.325 112.016 535.309 110.416C537.293 108.752 539.213 106.128 541.069 102.544L541.933 103.504C540.717 107.024 538.893 109.712 536.461 111.568C534.029 113.36 531.373 114.48 528.493 114.928C527.469 117.68 525.837 119.696 523.597 120.976C521.421 122.256 518.957 122.896 516.205 122.896ZM522.925 113.296C523.053 112.656 523.149 111.984 523.213 111.28C523.277 110.576 523.309 109.744 523.309 108.784C523.309 105.776 522.925 102.8 522.157 99.856C521.453 96.848 520.845 94.032 520.333 91.408C518.861 93.84 517.293 96.176 515.629 98.416C514.029 100.592 512.493 102.416 511.021 103.888C511.981 105.936 513.453 107.856 515.437 109.648C517.485 111.44 519.981 112.656 522.925 113.296ZM516.397 119.536C517.165 119.536 518.189 119.28 519.469 118.768C520.749 118.256 521.741 116.944 522.445 114.832C519.757 114.32 517.357 113.264 515.245 111.664C513.197 110.064 511.661 108.464 510.637 106.864C509.229 106.928 508.525 108.048 508.525 110.224C508.525 112.528 509.197 114.672 510.541 116.656C511.949 118.576 513.901 119.536 516.397 119.536Z" fill="#FFB8B8" fill-opacity="0.96"/>
</g>
<path d="M616.63 549.574C650.082 568.812 691.751 573.424 738.944 572.142C738.143 557.6 743.067 543.321 752.665 532.354C762.263 521.387 775.775 514.601 790.316 513.444C804.857 512.288 819.274 516.852 830.49 526.163C841.707 535.474 848.833 548.794 850.349 563.28C910.012 557.477 974.039 552.278 1038.76 559.567C1203.56 578.126 1142.8 257.406 1021.44 138.323C900.093 19.2406 711.097 14.7664 599.311 128.33C487.524 241.894 469.829 465.15 616.63 549.574Z" fill="#FFB8B8" fill-opacity="0.87"/>
<path d="M853.797 600C1041.77 600 1194.16 576.555 1194.16 547.634C1194.16 518.713 1041.77 495.267 853.797 495.267C665.822 495.267 513.438 518.713 513.438 547.634C513.438 576.555 665.822 600 853.797 600Z" fill="#3F3D56"/>
<path d="M839.493 394.563C839.493 394.563 778.61 387.239 771.275 400.422C763.94 413.605 769.074 424.591 778.61 431.183C788.146 437.774 840.96 467.802 840.96 467.802L845.362 475.126L854.898 473.662L864.434 464.873L860.032 456.816C860.032 456.816 823.356 434.845 822.622 428.985C822.622 428.985 856.365 444.366 860.032 441.436C863.7 438.507 904.778 424.591 898.176 416.535C891.574 408.478 874.703 396.76 874.703 396.76L839.493 394.563Z" fill="#2F2E41"/>
<path opacity="0.1" d="M839.493 394.563C839.493 394.563 778.61 387.239 771.275 400.422C763.94 413.605 769.074 424.591 778.61 431.183C788.146 437.774 840.96 467.802 840.96 467.802L845.362 475.126L854.898 473.662L864.434 464.873L860.032 456.816C860.032 456.816 823.356 434.845 822.622 428.985C822.622 428.985 856.365 444.366 860.032 441.436C863.7 438.507 904.778 424.591 898.176 416.535C891.574 408.478 874.703 396.76 874.703 396.76L839.493 394.563Z" fill="black"/>
<path d="M847.562 468.535C847.562 468.535 836.559 466.338 838.76 473.662C840.961 480.986 842.428 495.633 838.76 499.295C835.092 502.957 823.356 519.07 835.092 520.535C846.829 522 859.299 507.352 859.299 507.352C859.299 507.352 867.368 483.915 873.236 481.718C879.104 479.521 884.972 470.732 882.038 468.535C879.104 466.338 861.499 452.422 860.032 453.154C858.565 453.887 859.299 461.943 859.299 461.943C859.299 461.943 853.431 471.464 847.562 468.535Z" fill="#2F2E41"/>
<path d="M942.555 441.07H844.995V520.901H942.555V441.07Z" fill="#6C63FF"/>
<path d="M777.388 576.817L793.071 585.324L1072.76 528.921L1079.89 515.813L777.388 576.817Z" fill="#6C63FF"/>
<path d="M621.085 555.7L637.346 563.046L712.773 542.035L718.931 528.443L621.085 555.7Z" fill="#6C63FF"/>
<path d="M854.181 247.757C854.181 247.757 855.03 250.581 850.221 253.123C845.413 255.665 843.998 265.267 849.655 268.092C855.313 270.916 857.01 274.587 854.181 277.129C851.353 279.671 846.261 286.449 853.05 288.144C859.838 289.838 860.687 293.227 858.707 294.639C856.727 296.052 863.233 292.098 863.233 292.098C863.233 292.098 864.364 298.876 870.304 297.181C876.245 295.487 892.933 263.29 884.448 258.772C875.962 254.253 854.181 247.757 854.181 247.757Z" fill="#2F2E41"/>
<path d="M846.462 312.168L819.321 331.21C819.321 331.21 798.782 309.971 798.782 297.52C798.782 285.069 787.779 261.633 782.645 271.154C777.51 280.675 788.513 303.379 788.513 303.379L809.052 351.718C809.052 351.718 820.788 353.915 827.39 348.788C833.992 343.661 852.33 333.408 852.33 333.408L846.462 312.168Z" fill="#FC9042"/>
<path d="M873.236 280.309C884.579 280.309 893.775 271.128 893.775 259.802C893.775 248.476 884.579 239.295 873.236 239.295C861.893 239.295 852.697 248.476 852.697 259.802C852.697 271.128 861.893 280.309 873.236 280.309Z" fill="#FC9042"/>
<path d="M862.6 274.084C862.6 274.084 869.935 293.126 867.001 297.52C864.067 301.915 860.399 301.915 857.465 303.379C855.998 304.112 840.594 309.971 840.594 314.365C840.665 317.189 841.42 319.953 842.794 322.422L844.995 334.872L863.333 346.591L887.54 343.661L905.878 333.408C905.878 333.408 908.812 306.309 900.743 301.915C892.675 297.52 883.139 287.267 883.872 283.605C884.606 279.943 885.339 271.154 885.339 271.154L862.6 274.084Z" fill="#FC9042"/>
<path d="M831.791 319.492C831.791 319.492 842.794 330.478 842.794 331.943C842.794 333.408 835.459 339.999 840.594 348.788C845.729 357.577 845.729 379.549 845.729 379.549L863.333 383.211L896.342 380.281L901.477 329.746C901.477 329.746 888.273 331.943 885.339 334.14C882.405 336.337 874.336 331.21 868.468 331.21C862.6 331.21 845.729 328.281 845.729 328.281L847.196 322.422L841.327 312.168L831.791 319.492Z" fill="#FF6584"/>
<path d="M873.236 397.492C873.236 397.492 799.149 364.535 793.281 385.774C787.413 407.014 786.679 458.281 786.679 458.281C786.679 458.281 783.011 493.436 778.61 497.098C774.209 500.76 778.61 511.746 778.61 511.746L789.613 515.408L799.883 511.014L804.284 499.295C804.284 499.295 805.751 472.929 811.619 459.746C817.487 446.563 817.487 415.802 816.754 414.337C816.754 414.337 845.362 449.492 873.236 447.295C901.11 445.098 905.145 438.873 905.145 438.873C905.145 438.873 891.574 397.492 873.236 397.492Z" fill="#2F2E41"/>
<path d="M783.011 500.76C783.011 500.76 780.077 490.507 773.475 498.563C766.874 506.619 736.799 519.07 736.065 520.535C735.332 522 722.128 530.056 737.532 541.042C752.937 552.028 773.475 541.042 773.475 541.042C773.475 541.042 791.08 535.183 795.481 535.915C799.883 536.648 808.685 532.253 809.419 528.591C810.152 524.929 808.419 492.736 804.518 496.016C800.616 499.295 796.215 508.084 796.215 508.084C796.215 508.084 781.544 511.746 783.011 500.76Z" fill="#2F2E41"/>
<path d="M848.296 377.718C848.296 377.718 844.261 377.351 844.995 386.873C844.995 386.873 870.302 394.563 874.703 401.154C879.104 407.746 898.176 427.521 901.11 441.436C901.11 441.436 922.383 436.309 910.646 399.69L896.847 369.818C896.847 369.818 888.64 386.506 848.296 377.718Z" fill="#2F2E41"/>
<path d="M865.561 395.518L890.474 384.675C890.474 384.675 902.211 360.506 902.211 348.788C902.353 342.045 902.873 335.316 903.769 328.631C904.324 324.427 903.841 320.151 902.362 316.175C900.883 312.2 898.454 308.645 895.285 305.822C892.695 303.56 889.786 301.915 886.806 301.915C886.806 301.915 878.004 318.027 879.471 332.675C880.938 347.323 877.27 369.295 877.27 369.295L844.125 387.008" fill="#FC9042"/>
<path opacity="0.1" d="M865.561 395.518L890.474 384.675C890.474 384.675 902.211 360.506 902.211 348.788C902.211 342.684 876.537 324.619 878.004 339.267C879.471 353.915 877.27 369.295 877.27 369.295L844.125 387.008" fill="#FC9042"/>
<path d="M877.27 337.802L879.609 347.689L892.675 353.915H903.678L908.812 330.478C908.812 330.478 899.746 328.564 895.11 330.986C890.474 333.408 879.587 333.987 879.587 333.987L877.27 337.802Z" fill="#FF6584"/>
<path d="M873.404 239.219C873.404 239.219 874.344 242.348 869.017 245.164C863.69 247.98 862.123 258.617 868.39 261.746C874.657 264.875 876.537 268.942 873.404 271.758C870.27 274.574 864.63 282.082 872.15 283.96C879.671 285.837 880.611 289.591 878.417 291.156C876.224 292.72 883.431 288.34 883.431 288.34C883.431 288.34 884.685 295.849 891.265 293.971C897.845 292.094 904.411 257.971 897.076 249.182C890.255 241.01 873.404 239.219 873.404 239.219Z" fill="#2F2E41"/>
<path d="M871.402 235.999C871.404 231.415 899.937 236.447 905.826 242.847C909.903 247.279 916.097 253.946 910.907 258.646C905.717 263.346 905.005 267.769 908.782 269.637C912.56 271.505 920.019 277.217 913.284 281.05C906.549 284.882 906.658 288.75 909.193 289.666C911.727 290.582 903.604 288.304 903.604 288.304C903.604 288.304 904.425 295.873 897.581 295.836C890.738 295.8 871.104 258.248 875.794 247.81C880.155 238.104 871.402 235.999 871.402 235.999Z" fill="#2F2E41"/>
<path d="M874.377 234.994C856.01 233.89 854.167 247.694 854.167 247.694C854.294 255.682 867 251.79 870.528 252.981C874.786 249.923 882.992 244.137 888.861 240.008C884.6 237.013 879.581 235.275 874.377 234.994V234.994Z" fill="#2F2E41"/>
<path d="M815.555 537.409L805.209 548.173L1033.96 563.698L1021.08 551.359L815.555 537.409Z" fill="#6C63FF"/>
<path d="M1042.35 476.595C1042.35 498.034 1029.59 505.519 1013.84 505.519C1013.48 505.519 1013.11 505.513 1012.75 505.505C1012.02 505.49 1011.29 505.456 1010.58 505.406C996.37 504.402 985.331 496.532 985.331 476.595C985.331 455.966 1011.73 429.933 1013.72 428.002L1013.72 427.999C1013.8 427.923 1013.84 427.887 1013.84 427.887C1013.84 427.887 1042.35 455.16 1042.35 476.595Z" fill="#6C63FF"/>
<path d="M1012.8 502.238L1023.23 487.693L1012.77 503.837L1012.75 505.505C1012.02 505.49 1011.29 505.456 1010.58 505.406L1011.7 483.96L1011.7 483.792L1011.71 483.763L1011.82 481.735L1001.34 465.553L1011.85 480.216L1011.88 480.646L1012.73 464.442L1003.76 447.719L1012.84 461.599L1013.72 428.002L1013.72 427.887V427.999L1013.58 454.491L1022.51 443.988L1013.54 456.773L1013.3 471.282L1021.65 457.358L1013.27 473.417L1013.14 481.484L1025.24 462.102L1013.09 484.298L1012.8 502.238Z" fill="#3F3D56"/>
<g clip-path="url(#clip1)">
<g opacity="0.5">
<path opacity="0.5" d="M626.201 43.7777H625.177V50.4477H626.201V43.7777Z" fill="#47E6B1"/>
<path opacity="0.5" d="M628.59 47.7012V46.5242H622.789V47.7012H628.59Z" fill="#47E6B1"/>
</g>
<g opacity="0.5">
<path opacity="0.5" d="M662.592 188.94H661.569V195.61H662.592V188.94Z" fill="#47E6B1"/>
<path opacity="0.5" d="M664.978 192.864V191.687H659.177V192.864H664.978Z" fill="#47E6B1"/>
</g>
<g opacity="0.5">
<path opacity="0.5" d="M611.653 111.463H610.629V118.133H611.653V111.463Z" fill="#47E6B1"/>
<path opacity="0.5" d="M614.042 115.387V114.21H608.241V115.387H614.042Z" fill="#47E6B1"/>
</g>
<g opacity="0.5">
<path opacity="0.5" d="M790.888 -2H789.864V4.66995H790.888V-2Z" fill="#47E6B1"/>
<path opacity="0.5" d="M793.277 1.92352V0.74646L787.476 0.74646V1.92352L793.277 1.92352Z" fill="#47E6B1"/>
</g>
<g opacity="0.5">
<path opacity="0.5" d="M618.143 14.5883H617.119V21.2582H618.143V14.5883Z" fill="#47E6B1"/>
<path opacity="0.5" d="M620.529 18.5118V17.3347H614.728V18.5118H620.529Z" fill="#47E6B1"/>
</g>
<path opacity="0.5" d="M637.758 165.138C637.476 164.996 637.249 164.74 637.12 164.419C636.991 164.098 636.97 163.733 637.06 163.395C637.074 163.343 637.084 163.29 637.087 163.236V163.236C637.108 163.076 637.08 162.912 637.008 162.772C636.936 162.633 636.825 162.526 636.693 162.47C636.561 162.413 636.416 162.411 636.282 162.463C636.148 162.515 636.034 162.618 635.959 162.755V162.755C635.931 162.799 635.907 162.847 635.888 162.897C635.765 163.221 635.543 163.482 635.263 163.63C634.984 163.778 634.667 163.802 634.373 163.699C634.328 163.682 634.281 163.672 634.234 163.667V163.667C634.095 163.643 633.953 163.676 633.831 163.758C633.71 163.841 633.617 163.969 633.568 164.121C633.519 164.273 633.517 164.44 633.562 164.593C633.607 164.747 633.697 164.878 633.816 164.964V164.964C633.854 164.997 633.896 165.024 633.939 165.046C634.221 165.187 634.448 165.443 634.577 165.764C634.705 166.086 634.727 166.45 634.637 166.788C634.623 166.84 634.613 166.893 634.609 166.947V166.947C634.589 167.108 634.617 167.272 634.689 167.411C634.76 167.551 634.872 167.658 635.004 167.714C635.136 167.77 635.281 167.773 635.415 167.721C635.549 167.669 635.663 167.565 635.738 167.428C635.766 167.384 635.79 167.337 635.808 167.287C635.932 166.963 636.154 166.702 636.433 166.554C636.713 166.406 637.03 166.381 637.324 166.484C637.369 166.501 637.415 166.512 637.462 166.516C637.602 166.54 637.744 166.508 637.866 166.425C637.987 166.343 638.08 166.215 638.129 166.063C638.178 165.91 638.18 165.744 638.135 165.59C638.09 165.436 638 165.305 637.881 165.219V165.219C637.842 165.186 637.801 165.159 637.758 165.138Z" fill="#4D8AF0"/>
<path opacity="0.5" d="M632.685 228.532C632.403 228.391 632.176 228.135 632.047 227.814C631.919 227.492 631.897 227.128 631.987 226.79C632.002 226.738 632.011 226.685 632.015 226.631V226.631C632.035 226.47 632.007 226.306 631.936 226.167C631.864 226.027 631.752 225.921 631.62 225.864C631.488 225.808 631.343 225.805 631.209 225.857C631.076 225.909 630.962 226.013 630.886 226.15C630.858 226.194 630.834 226.241 630.816 226.291C630.693 226.615 630.472 226.876 630.193 227.025C629.914 227.173 629.597 227.199 629.303 227.097C629.258 227.08 629.212 227.07 629.165 227.065V227.065C629.025 227.042 628.883 227.074 628.762 227.156C628.64 227.239 628.547 227.367 628.498 227.519C628.449 227.671 628.447 227.838 628.492 227.991C628.538 228.145 628.627 228.276 628.747 228.363V228.363C628.785 228.395 628.826 228.422 628.87 228.444C629.152 228.585 629.379 228.841 629.507 229.162C629.636 229.484 629.657 229.848 629.568 230.187C629.553 230.238 629.544 230.291 629.54 230.346C629.519 230.506 629.547 230.67 629.619 230.809C629.691 230.949 629.802 231.056 629.934 231.112C630.067 231.168 630.212 231.171 630.345 231.119C630.479 231.067 630.593 230.963 630.668 230.826V230.826C630.696 230.782 630.72 230.735 630.739 230.685C630.862 230.361 631.084 230.1 631.364 229.952C631.643 229.804 631.96 229.779 632.255 229.883C632.299 229.899 632.346 229.91 632.393 229.914C632.532 229.938 632.675 229.906 632.796 229.823C632.918 229.741 633.01 229.613 633.059 229.461C633.109 229.309 633.111 229.142 633.065 228.988C633.02 228.835 632.93 228.704 632.811 228.617V228.617C632.772 228.583 632.73 228.555 632.685 228.532V228.532Z" fill="#4D8AF0"/>
<path opacity="0.5" d="M819.298 88.2052C819.016 88.0637 818.79 87.808 818.661 87.4867C818.532 87.1654 818.511 86.8009 818.601 86.4626C818.615 86.411 818.624 86.3576 818.628 86.3035C818.649 86.1431 818.621 85.9794 818.549 85.8399C818.477 85.7003 818.366 85.5934 818.234 85.5371C818.101 85.4807 817.956 85.4784 817.823 85.5304C817.689 85.5824 817.575 85.6857 817.5 85.8228V85.8228C817.472 85.8667 817.448 85.9141 817.429 85.9642C817.307 86.2882 817.085 86.5493 816.806 86.6979C816.527 86.8464 816.211 86.8721 815.917 86.7701C815.872 86.7534 815.825 86.7428 815.778 86.7383V86.7383C815.639 86.7145 815.496 86.7467 815.375 86.8293C815.254 86.9119 815.161 87.0399 815.112 87.192C815.063 87.344 815.061 87.5108 815.106 87.6644C815.151 87.818 815.241 87.949 815.36 88.0355C815.398 88.068 815.44 88.0953 815.483 88.1168C815.765 88.2583 815.992 88.5141 816.121 88.8354C816.249 89.1566 816.271 89.5211 816.181 89.8594C816.166 89.911 816.157 89.9644 816.153 90.0185C816.133 90.1789 816.161 90.3426 816.232 90.4821C816.304 90.6217 816.416 90.7286 816.548 90.7849C816.68 90.8413 816.825 90.8436 816.959 90.7916C817.092 90.7396 817.206 90.6363 817.282 90.4992V90.4992C817.31 90.4554 817.334 90.4079 817.352 90.3578C817.475 90.0336 817.698 89.7728 817.977 89.6248C818.257 89.4769 818.574 89.4522 818.868 89.5554C818.913 89.5721 818.959 89.5828 819.006 89.5873V89.5873C819.146 89.611 819.288 89.5789 819.41 89.4963C819.531 89.4137 819.624 89.2856 819.673 89.1336C819.722 88.9815 819.724 88.8147 819.679 88.6612C819.634 88.5076 819.544 88.3765 819.424 88.29V88.29C819.385 88.2561 819.343 88.2276 819.298 88.2052V88.2052Z" fill="#4D8AF0"/>
<path opacity="0.5" d="M810.853 155.131C810.571 154.989 810.344 154.734 810.216 154.412C810.087 154.091 810.065 153.727 810.155 153.388C810.17 153.337 810.179 153.283 810.183 153.229C810.204 153.069 810.176 152.905 810.104 152.766C810.032 152.626 809.921 152.519 809.788 152.463C809.656 152.407 809.511 152.404 809.377 152.456C809.244 152.508 809.13 152.611 809.055 152.749V152.749C809.026 152.792 809.003 152.84 808.984 152.89C808.861 153.214 808.638 153.475 808.359 153.623C808.079 153.771 807.762 153.796 807.468 153.692C807.423 153.676 807.377 153.665 807.33 153.661V153.661C807.19 153.637 807.048 153.669 806.927 153.752C806.805 153.834 806.712 153.962 806.663 154.114C806.614 154.266 806.612 154.433 806.657 154.587C806.703 154.74 806.792 154.871 806.912 154.958C806.95 154.99 806.991 155.018 807.035 155.039C807.317 155.181 807.544 155.436 807.672 155.758C807.801 156.079 807.822 156.443 807.733 156.782C807.718 156.833 807.709 156.887 807.705 156.941V156.941C807.684 157.101 807.712 157.265 807.784 157.404C807.856 157.544 807.967 157.651 808.1 157.707C808.232 157.763 808.377 157.766 808.51 157.714C808.644 157.662 808.758 157.559 808.833 157.421V157.421C808.861 157.378 808.885 157.33 808.904 157.28C809.027 156.956 809.249 156.695 809.529 156.547C809.808 156.399 810.125 156.374 810.42 156.478C810.465 156.494 810.511 156.505 810.558 156.509C810.697 156.533 810.84 156.501 810.961 156.419C811.083 156.336 811.176 156.208 811.225 156.056C811.274 155.904 811.276 155.737 811.23 155.583C811.185 155.43 811.095 155.299 810.976 155.212V155.212C810.938 155.18 810.897 155.153 810.853 155.131Z" fill="#4D8AF0"/>
<path opacity="0.5" d="M817.146 21.7566C816.864 21.6151 816.637 21.3594 816.509 21.0381C816.38 20.7168 816.359 20.3523 816.448 20.014C816.463 19.9624 816.472 19.909 816.476 19.8549C816.497 19.6945 816.469 19.5308 816.397 19.3913C816.325 19.2518 816.214 19.1449 816.082 19.0885C815.949 19.0322 815.804 19.0298 815.671 19.0818C815.537 19.1338 815.423 19.2371 815.348 19.3742V19.3742C815.32 19.4181 815.296 19.4655 815.277 19.5156C815.154 19.8398 814.932 20.1007 814.652 20.2486C814.373 20.3965 814.056 20.4212 813.761 20.318C813.717 20.3013 813.67 20.2906 813.623 20.2862V20.2862C813.484 20.2624 813.341 20.2945 813.22 20.3771C813.098 20.4597 813.005 20.5878 812.956 20.7399C812.907 20.8919 812.905 21.0587 812.951 21.2123C812.996 21.3659 813.086 21.4969 813.205 21.5834V21.5834C813.243 21.6159 813.284 21.6432 813.328 21.6647C813.61 21.8062 813.837 22.062 813.965 22.3832C814.094 22.7045 814.116 23.069 814.026 23.4073C814.011 23.4589 814.002 23.5123 813.998 23.5664V23.5664C813.978 23.7268 814.005 23.8905 814.077 24.03C814.149 24.1696 814.261 24.2765 814.393 24.3328C814.525 24.3892 814.67 24.3915 814.804 24.3395C814.937 24.2875 815.051 24.1842 815.126 24.0471C815.155 24.0033 815.178 23.9558 815.197 23.9057C815.32 23.5815 815.543 23.3207 815.822 23.1727C816.102 23.0248 816.419 23.0001 816.713 23.1033C816.758 23.12 816.804 23.1307 816.851 23.1351C816.991 23.1589 817.133 23.1268 817.254 23.0442C817.376 22.9616 817.469 22.8335 817.518 22.6815C817.567 22.5294 817.569 22.3626 817.524 22.209C817.478 22.0555 817.389 21.9244 817.269 21.8379V21.8379C817.231 21.8054 817.19 21.7782 817.146 21.7566V21.7566Z" fill="#4D8AF0"/>
<path opacity="0.5" d="M836.89 195.681C836.608 195.539 836.381 195.284 836.252 194.962C836.124 194.641 836.102 194.277 836.192 193.938C836.206 193.887 836.216 193.833 836.22 193.779C836.24 193.619 836.212 193.455 836.14 193.316C836.069 193.176 835.957 193.069 835.825 193.013C835.693 192.956 835.548 192.954 835.414 193.006C835.281 193.058 835.167 193.161 835.091 193.298V193.298C835.063 193.342 835.039 193.39 835.021 193.44C834.898 193.764 834.675 194.025 834.396 194.173C834.116 194.321 833.799 194.345 833.505 194.242C833.46 194.226 833.414 194.215 833.367 194.21V194.21C833.227 194.187 833.085 194.219 832.963 194.301C832.842 194.384 832.749 194.512 832.7 194.664C832.651 194.816 832.649 194.983 832.694 195.137C832.739 195.29 832.829 195.421 832.949 195.508C832.987 195.54 833.028 195.567 833.071 195.589C833.353 195.73 833.58 195.986 833.709 196.307C833.838 196.629 833.859 196.993 833.769 197.332C833.755 197.383 833.746 197.437 833.742 197.491V197.491C833.721 197.651 833.749 197.815 833.821 197.954C833.893 198.094 834.004 198.201 834.136 198.257C834.269 198.313 834.414 198.316 834.547 198.264C834.681 198.212 834.795 198.108 834.87 197.971V197.971C834.898 197.928 834.922 197.88 834.941 197.83C835.064 197.506 835.286 197.245 835.566 197.097C835.845 196.949 836.162 196.924 836.456 197.028C836.501 197.044 836.548 197.055 836.595 197.059C836.734 197.083 836.877 197.051 836.998 196.968C837.119 196.886 837.212 196.758 837.261 196.606C837.31 196.454 837.312 196.287 837.267 196.133C837.222 195.98 837.132 195.849 837.013 195.762V195.762C836.975 195.73 836.933 195.702 836.89 195.681Z" fill="#4D8AF0"/>
<path opacity="0.5" d="M589.048 91.4713C590.178 91.4713 591.095 90.4173 591.095 89.1172C591.095 87.817 590.178 86.7631 589.048 86.7631C587.917 86.7631 587 87.817 587 89.1172C587 90.4173 587.917 91.4713 589.048 91.4713Z" fill="#F55F44"/>
<path opacity="0.5" d="M817.524 51.9923C818.655 51.9923 819.572 50.9384 819.572 49.6382C819.572 48.3381 818.655 47.2841 817.524 47.2841C816.394 47.2841 815.477 48.3381 815.477 49.6382C815.477 50.9384 816.394 51.9923 817.524 51.9923Z" fill="#F55F44"/>
<path opacity="0.5" d="M724.399 140.61C725.673 140.61 726.705 139.424 726.705 137.959C726.705 136.495 725.673 135.308 724.399 135.308C723.126 135.308 722.093 136.495 722.093 137.959C722.093 139.424 723.126 140.61 724.399 140.61Z" fill="#F55F44"/>
<path opacity="0.5" d="M724.399 140.61C725.673 140.61 726.705 139.424 726.705 137.959C726.705 136.495 725.673 135.308 724.399 135.308C723.126 135.308 722.093 136.495 722.093 137.959C722.093 139.424 723.126 140.61 724.399 140.61Z" fill="#F55F44"/>
<path opacity="0.5" d="M842.956 122.774C844.086 122.774 845.003 121.72 845.003 120.42C845.003 119.12 844.086 118.066 842.956 118.066C841.825 118.066 840.908 119.12 840.908 120.42C840.908 121.72 841.825 122.774 842.956 122.774Z" fill="#F55F44"/>
<path opacity="0.5" d="M677.438 17.3595C678.712 17.3595 679.744 16.1726 679.744 14.7085C679.744 13.2443 678.712 12.0574 677.438 12.0574C676.165 12.0574 675.133 13.2443 675.133 14.7085C675.133 16.1726 676.165 17.3595 677.438 17.3595Z" fill="#47E6B1"/>
<path opacity="0.5" d="M808.812 220.003C809.943 220.003 810.859 218.949 810.859 217.649C810.859 216.349 809.943 215.295 808.812 215.295C807.681 215.295 806.764 216.349 806.764 217.649C806.764 218.949 807.681 220.003 808.812 220.003Z" fill="#F55F44"/>
<path d="M681.291 132.862C680.079 137.383 681.905 142.728 685.45 145.107C686.938 146.103 688.651 146.605 690.092 147.687C693.225 150.034 694.461 154.527 695.479 158.662C696.647 163.416 697.818 168.443 696.748 173.225C696.066 176.275 694.513 178.972 693.631 181.956C692.893 184.455 692.636 187.108 692.878 189.732C693.007 191.125 693.308 192.56 694.138 193.599C695.337 195.084 697.268 195.306 699.002 195.663C702.668 196.46 706.117 198.245 709.067 200.871C712.017 203.497 714.383 206.89 715.972 210.77" stroke="url(#paint0_linear)" stroke-width="2" stroke-miterlimit="10"/>
<path d="M681.663 132.862C680.451 137.383 682.277 142.728 685.822 145.107C687.31 146.103 689.023 146.605 690.464 147.687C693.597 150.034 694.833 154.527 695.851 158.662C697.019 163.416 698.19 168.443 697.12 173.225C696.438 176.275 694.885 178.972 694.003 181.956C693.265 184.455 693.008 187.108 693.25 189.732C693.379 191.125 693.68 192.56 694.51 193.599C695.709 195.084 697.64 195.306 699.374 195.663C703.04 196.46 706.489 198.245 709.439 200.871C712.389 203.497 714.755 206.89 716.344 210.77" stroke="#535461" stroke-width="2" stroke-miterlimit="10"/>
<path d="M727.513 99.0708C724.525 103.86 721.423 109.01 721.168 114.899C720.778 123.944 727.071 131.343 729.881 139.805C731.099 143.532 731.65 147.504 731.501 151.482C731.353 155.46 730.508 159.363 729.017 162.957C727.646 166.216 725.69 169.453 725.942 173.062C726.087 175.265 727.046 177.269 727.818 179.294C729.712 184.37 730.538 189.888 730.23 195.4C729.922 200.912 728.488 206.262 726.044 211.018" stroke="url(#paint1_linear)" stroke-width="2" stroke-miterlimit="10"/>
<path d="M727.882 99.0708C724.897 103.878 721.795 109.014 721.534 114.899C721.143 123.944 727.437 131.343 730.247 139.805C731.464 143.532 732.016 147.504 731.867 151.482C731.719 155.46 730.874 159.363 729.383 162.957C728.011 166.216 726.056 169.453 726.308 173.062C726.453 175.265 727.412 177.269 728.184 179.294C730.078 184.37 730.904 189.888 730.596 195.4C730.288 200.912 728.853 206.262 726.41 211.018" stroke="#535461" stroke-width="2" stroke-miterlimit="10"/>
<path d="M769.442 142.152L770.886 155.693C771.077 157.492 771.24 159.454 770.401 160.995C769.604 162.448 768.11 163.141 766.948 164.215C763.133 167.75 763.48 174.505 764.796 179.927C766.112 185.349 768.006 191.174 766.177 196.391C765.42 198.544 764.086 200.357 763.102 202.379C761.414 205.834 760.746 209.825 761.196 213.754" stroke="url(#paint2_linear)" stroke-width="2" stroke-miterlimit="10"/>
<path d="M769.801 142.152L771.246 155.693C771.437 157.492 771.6 159.454 770.76 160.995C769.964 162.448 768.47 163.141 767.308 164.215C763.493 167.75 763.84 174.505 765.156 179.927C766.472 185.349 768.366 191.174 766.536 196.391C765.78 198.544 764.446 200.357 763.462 202.379C761.774 205.834 761.105 209.825 761.556 213.754" stroke="#535461" stroke-width="2" stroke-miterlimit="10"/>
<g opacity="0.7">
<path opacity="0.7" d="M806.909 86.4944C806.906 80.1594 805.6 73.9149 803.097 68.2712C800.594 62.6276 796.965 57.745 792.506 54.0224C788.048 50.2998 782.887 47.8429 777.445 46.8524C772.002 45.8619 766.433 46.3659 761.193 48.3233C761.481 46.0679 761.63 43.7917 761.639 41.512C761.653 31.1077 758.151 21.1039 751.873 13.6107C745.595 6.11741 737.031 1.72047 727.988 1.34726C718.944 0.974053 710.128 4.65374 703.399 11.6102C696.67 18.5667 692.554 28.2561 691.919 38.6348C686.677 36.6732 681.106 36.166 675.661 37.1547C670.216 38.1434 665.052 40.6 660.591 44.3235C656.13 48.0469 652.499 52.9315 649.995 58.5778C647.491 64.224 646.186 70.4716 646.184 76.8094C646.184 96.9571 659.097 125.588 675.898 130.66L678.514 132.378L677.094 137.974H685.505L683.679 132.371L686.283 130.66C699.275 126.74 709.928 108.745 714.1 91.4854C716.384 93.2333 718.898 94.5462 721.546 95.3736L724.162 97.0914L722.764 102.673H731.175L729.349 97.0702L731.953 95.3594C733.883 94.7625 735.741 93.8946 737.487 92.7756C739.734 112.139 751.69 135.779 766.819 140.342L769.435 142.06L768.015 147.655H776.426L774.594 142.053L777.198 140.342C794.012 135.27 806.909 106.628 806.909 86.4944Z" fill="url(#paint3_linear)"/>
</g>
<path d="M686.843 135.902H678.702L680.128 130.289H685.01L686.843 135.902Z" fill="#F55F44"/>
<path d="M716.344 76.7175C716.344 98.1659 701.222 129.586 682.569 129.586C663.917 129.586 648.795 98.1624 648.795 76.7175C648.795 66.4181 652.353 56.5406 658.687 49.2578C665.022 41.975 673.613 37.8836 682.571 37.8836C691.529 37.8836 700.12 41.975 706.455 49.2578C712.789 56.5406 716.347 66.4181 716.347 76.7175H716.344Z" fill="#F55F44"/>
<path d="M685.01 130.522H680.128L677.278 128.653H687.86L685.01 130.522Z" fill="#535461"/>
<path opacity="0.1" d="M670.361 46.5383C670.361 46.5383 656.118 55.4281 654.082 73.2075Z" fill="white"/>
<path d="M731.012 101.764H722.871L724.298 96.1512H729.18L731.012 101.764Z" fill="#4D8AF0"/>
<path d="M760.514 42.5795C760.514 64.0279 745.391 95.4478 726.739 95.4478C708.087 95.4478 692.964 64.0244 692.964 42.5795C692.964 32.2801 696.522 22.4025 702.857 15.1198C709.191 7.83703 717.782 3.74562 726.74 3.74562C735.698 3.74562 744.29 7.83703 750.624 15.1198C756.958 22.4025 760.517 32.2801 760.517 42.5795H760.514Z" fill="#6C63FF"/>
<path d="M729.18 96.3845H724.298L721.448 94.5111H732.03L729.18 96.3845Z" fill="#535461"/>
<path opacity="0.1" d="M714.53 12.4003C714.53 12.4003 700.287 21.2901 698.252 39.0695Z" fill="white"/>
<path d="M774.809 145.294H766.668L768.095 139.677H772.977L774.809 145.294Z" fill="#3AD29F"/>
<path d="M804.311 86.1056C804.311 107.554 789.188 138.974 770.536 138.974C751.884 138.974 736.758 107.554 736.758 86.1056C736.758 75.8062 740.317 65.9287 746.651 58.6459C752.985 51.3632 761.576 47.2718 770.534 47.2718C779.493 47.2718 788.084 51.3632 794.418 58.6459C800.752 65.9287 804.311 75.8062 804.311 86.1056V86.1056Z" fill="#3AD29F"/>
<path d="M772.977 139.911H768.095L765.245 138.041H775.827L772.977 139.911Z" fill="#535461"/>
<g opacity="0.5">
<path opacity="0.5" d="M745.763 151.911C743.804 149.652 740.948 148.754 737.72 149.38C734.701 149.967 731.679 151.854 729.214 154.682C728.499 155.508 727.899 156.454 727.434 157.489C726.98 156.419 726.385 155.438 725.669 154.58V154.58C723.246 151.699 720.252 149.758 717.23 149.122C714.014 148.415 711.146 149.274 709.15 151.494C707.155 153.714 706.337 156.983 706.835 160.702C707.303 164.18 708.895 167.683 711.321 170.556C716.418 176.604 726.591 174.243 727.022 174.137L727.148 174.105L727.538 174.208C727.968 174.321 738.105 176.883 743.291 170.938C745.751 168.11 747.401 164.643 747.924 161.172C748.493 157.457 747.721 154.173 745.763 151.911ZM725.312 170.645C722.853 171.026 716.726 171.543 713.685 167.934C711.73 165.611 710.451 162.84 710.085 160.122C709.753 157.648 710.232 155.527 711.444 154.191C711.917 153.669 712.482 153.271 713.101 153.024C714.245 152.599 715.467 152.528 716.643 152.819C718.991 153.325 721.365 154.88 723.32 157.202C726.361 160.786 725.721 167.828 725.312 170.641V170.645ZM744.714 160.532C744.309 163.24 742.99 165.99 740.998 168.269C737.902 171.804 731.774 171.178 729.33 170.744C728.965 167.916 728.43 160.885 731.525 157.337C733.518 155.057 735.913 153.547 738.268 153.095C739.448 152.827 740.668 152.923 741.806 153.371C742.422 153.63 742.983 154.04 743.448 154.572C744.635 155.94 745.083 158.054 744.714 160.528V160.532Z" fill="url(#paint4_linear)"/>
</g>
<path d="M728.021 173.366L727.052 173.6C726.64 173.699 716.907 175.957 712.028 170.171C709.71 167.421 708.185 164.07 707.724 160.741C707.244 157.181 708.031 154.053 709.937 151.929C711.843 149.804 714.589 148.998 717.666 149.659C720.547 150.278 723.412 152.134 725.73 154.887C730.606 160.673 728.337 171.79 728.239 172.26L728.021 173.366ZM713.716 153.399C713.123 153.635 712.582 154.016 712.129 154.516C710.973 155.806 710.512 157.821 710.829 160.193C711.179 162.791 712.403 165.445 714.275 167.668C717.187 171.122 723.05 170.627 725.401 170.263C725.792 167.573 726.407 160.85 723.495 157.397C721.623 155.177 719.354 153.685 717.104 153.205C715.979 152.926 714.811 152.993 713.716 153.399V153.399Z" fill="#6C63FF"/>
<path d="M726.582 173.416L726.367 172.306C726.274 171.832 724.172 160.673 729.134 154.986C731.495 152.282 734.385 150.483 737.275 149.921C740.349 149.32 743.094 150.179 744.96 152.342C746.827 154.505 747.574 157.644 747.042 161.179C746.544 164.498 744.97 167.817 742.609 170.521C737.647 176.208 727.947 173.755 727.544 173.649L726.582 173.416ZM741.185 153.717C740.098 153.289 738.931 153.197 737.803 153.452C735.547 153.89 733.256 155.336 731.347 157.517C728.383 160.914 728.888 167.644 729.247 170.344C731.593 170.754 737.45 171.366 740.41 167.972C742.316 165.788 743.577 163.158 743.967 160.55C744.321 158.185 743.891 156.16 742.753 154.848C742.307 154.346 741.772 153.96 741.185 153.717V153.717Z" fill="#6C63FF"/>
<g opacity="0.5">
<path opacity="0.5" d="M774.053 170.443H679.667V192.157H684.571V255H769.149V192.157H774.053V170.443Z" fill="url(#paint5_linear)"/>
</g>
<path d="M768.08 177.007H685.641V253.933H768.08V177.007Z" fill="#535461"/>
<path d="M734.624 190.743H719.093V253.929H734.624V190.743Z" fill="#6C63FF"/>
<path opacity="0.1" d="M768.08 172.886H685.641V192.118H768.08V172.886Z" fill="black"/>
<path d="M772.86 171.511H680.863V190.743H772.86V171.511Z" fill="#535461"/>
<path d="M734.624 171.511H719.093V190.743H734.624V171.511Z" fill="#6C63FF"/>
</g>
</g>
<defs>
<filter id="filter0_d" x="32.424" y="48.88" width="513.509" height="85.472" filterUnits="userSpaceOnUse" color-interpolation-filters="sRGB">
<feFlood flood-opacity="0" result="BackgroundImageFix"/>
<feColorMatrix in="SourceAlpha" type="matrix" values="0 0 0 0 0 0 0 0 0 0 0 0 0 0 0 0 0 0 127 0"/>
<feOffset dy="4"/>
<feGaussianBlur stdDeviation="2"/>
<feColorMatrix type="matrix" values="0 0 0 0 0 0 0 0 0 0 0 0 0 0 0 0 0 0 0.25 0"/>
<feBlend mode="normal" in2="BackgroundImageFix" result="effect1_dropShadow"/>
<feBlend mode="normal" in="SourceGraphic" in2="effect1_dropShadow" result="shape"/>
</filter>
<linearGradient id="paint0_linear" x1="680.608" y1="171.825" x2="716.249" y2="171.825" gradientUnits="userSpaceOnUse">
<stop stop-color="#808080" stop-opacity="0.25"/>
<stop offset="0.54" stop-color="#808080" stop-opacity="0.12"/>
<stop offset="1" stop-color="#808080" stop-opacity="0.1"/>
</linearGradient>
<linearGradient id="paint1_linear" x1="7109.16" y1="59511.6" x2="7480.05" y2="59511.6" gradientUnits="userSpaceOnUse">
<stop stop-color="#808080" stop-opacity="0.25"/>
<stop offset="0.54" stop-color="#808080" stop-opacity="0.12"/>
<stop offset="1" stop-color="#808080" stop-opacity="0.1"/>
</linearGradient>
<linearGradient id="paint2_linear" x1="8201.33" y1="42785.6" x2="8546.06" y2="42785.6" gradientUnits="userSpaceOnUse">
<stop stop-color="#808080" stop-opacity="0.25"/>
<stop offset="0.54" stop-color="#808080" stop-opacity="0.12"/>
<stop offset="1" stop-color="#808080" stop-opacity="0.1"/>
</linearGradient>
<linearGradient id="paint3_linear" x1="102597" y1="74609.6" x2="102597" y2="14052.3" gradientUnits="userSpaceOnUse">
<stop stop-color="#808080" stop-opacity="0.25"/>
<stop offset="0.54" stop-color="#808080" stop-opacity="0.12"/>
<stop offset="1" stop-color="#808080" stop-opacity="0.1"/>
</linearGradient>
<linearGradient id="paint4_linear" x1="27091.7" y1="15388.8" x2="27091.7" y2="13480.6" gradientUnits="userSpaceOnUse">
<stop stop-color="#808080" stop-opacity="0.25"/>
<stop offset="0.54" stop-color="#808080" stop-opacity="0.12"/>
<stop offset="1" stop-color="#808080" stop-opacity="0.1"/>
</linearGradient>
<linearGradient id="paint5_linear" x1="43617.7" y1="61650" x2="43617.7" y2="41422.3" gradientUnits="userSpaceOnUse">
<stop stop-color="#808080" stop-opacity="0.25"/>
<stop offset="0.54" stop-color="#808080" stop-opacity="0.12"/>
<stop offset="1" stop-color="#808080" stop-opacity="0.1"/>
</linearGradient>
<clipPath id="clip0">
<rect width="1200" height="600" fill="white"/>
</clipPath>
<clipPath id="clip1">
<rect width="258" height="257" fill="white" transform="translate(587 -2)"/>
</clipPath>
</defs>
</svg>
